<svg width="219" height="54" viewBox="0 0 219 54" fill="none" xmlns="http://www.w3.org/2000/svg">
<rect width="219" height="54" rx="27" fill="#FAE52A" fill-opacity="0.6"/>
<path d="M92.125 21.5469C94.0833 22.7135 95.0625 24.4688 95.0625 26.8125C95.0625 28.5208 94.4583 29.9792 93.25 31.1875C92.0417 32.3958 90.5833 33 88.875 33H83.7188C83.0312 33 82.6875 32.6562 82.6875 31.9688V13.4062C82.6875 12.7188 83.0312 12.375 83.7188 12.375H88.875C90.3229 12.375 91.5417 12.875 92.5312 13.875C93.5312 14.8646 94.0312 16.0833 94.0312 17.5312C94.0312 19.1771 93.3958 20.5156 92.125 21.5469ZM84.75 14.4375V20.625H88.875C89.7292 20.625 90.4583 20.3229 91.0625 19.7188C91.6667 19.1146 91.9688 18.3854 91.9688 17.5312C91.9688 16.6771 91.6667 15.9479 91.0625 15.3438C90.4583 14.7396 89.7292 14.4375 88.875 14.4375H84.75ZM84.75 22.6875V30.9375H88.875C90.0312 30.9375 91.0052 30.5417 91.7969 29.75C92.599 28.9479 93 27.9688 93 26.8125C93 25.6562 92.599 24.6823 91.7969 23.8906C91.0052 23.0885 90.0312 22.6875 88.875 22.6875H84.75ZM103.312 33C102.156 33 101.177 32.6042 100.375 31.8125C99.5833 31.0104 99.1875 30.0312 99.1875 28.875C99.1875 28.125 99.3698 27.4323 99.7344 26.7969C100.516 25.4323 101.708 24.75 103.312 24.75H107.438V22.6875C107.438 22.1042 107.24 21.6146 106.844 21.2188C106.448 20.8229 105.958 20.625 105.375 20.625H101.25C100.562 20.625 100.219 20.2812 100.219 19.5938C100.219 18.9062 100.562 18.5625 101.25 18.5625H105.375C106.531 18.5625 107.505 18.9635 108.297 19.7656C109.099 20.5573 109.5 21.5312 109.5 22.6875V31.9688C109.5 32.6562 109.156 33 108.469 33H103.312ZM107.438 26.8125H103.312C102.74 26.8125 102.25 27.0156 101.844 27.4219C101.448 27.8177 101.25 28.3021 101.25 28.875C101.25 29.4375 101.453 29.9219 101.859 30.3281C102.266 30.7344 102.75 30.9375 103.312 30.9375H107.438V26.8125ZM115.688 22.6875V28.875C115.688 29.4375 115.891 29.9219 116.297 30.3281C116.703 30.7344 117.188 30.9375 117.75 30.9375H120.844C121.531 30.9375 121.875 31.2812 121.875 31.9688C121.875 32.6562 121.531 33 120.844 33H117.75C116.594 33 115.615 32.6042 114.812 31.8125C114.021 31.0104 113.625 30.0312 113.625 28.875V22.6875C113.625 21.5312 114.021 20.5573 114.812 19.7656C115.615 18.9635 116.594 18.5625 117.75 18.5625H120.844C121.531 18.5625 121.875 18.9062 121.875 19.5938C121.875 20.2812 121.531 20.625 120.844 20.625H117.75C117.177 20.625 116.688 20.8281 116.281 21.2344C115.885 21.6302 115.688 22.1146 115.688 22.6875ZM128.062 26.2969V31.9688C128.062 32.6562 127.719 33 127.031 33C126.344 33 126 32.6562 126 31.9688V13.4062C126 12.7188 126.344 12.375 127.031 12.375C127.719 12.375 128.062 12.7188 128.062 13.4062V23.7031L134.656 18.7656C134.833 18.6302 135.042 18.5625 135.281 18.5625C135.969 18.5625 136.312 18.9062 136.312 19.5938C136.312 19.9479 136.177 20.224 135.906 20.4219L131.906 23.4219L136.203 31.4844C136.276 31.6198 136.312 31.7812 136.312 31.9688C136.312 32.25 136.208 32.4948 136 32.7031C135.802 32.901 135.562 33 135.281 33C134.875 33 134.573 32.8177 134.375 32.4531L130.234 24.6875L128.062 26.2969Z" fill="black"/>
</svg>
