<svg width="219" height="54" viewBox="0 0 219 54" fill="none" xmlns="http://www.w3.org/2000/svg">
<rect width="219" height="54" rx="27" fill="#FAE52A" fill-opacity="0.6"/>
<path d="M76.7812 14.375C77.4688 14.375 77.8125 14.7188 77.8125 15.4062C77.8125 16.0938 77.4688 16.4375 76.7812 16.4375H72.6562C71.7917 16.4375 71.0573 16.7396 70.4531 17.3438C69.8594 17.9479 69.5625 18.6771 69.5625 19.5312V29.8438C69.5625 30.6979 69.8646 31.4271 70.4688 32.0312C71.0729 32.6354 71.8021 32.9375 72.6562 32.9375H76.7812C77.4688 32.9375 77.8125 33.2812 77.8125 33.9688C77.8125 34.6562 77.4688 35 76.7812 35H72.6562C71.2292 35 70.0104 34.5 69 33.5C68 32.4896 67.5 31.2708 67.5 29.8438V19.5312C67.5 18.1042 68 16.8906 69 15.8906C70.0104 14.8802 71.2292 14.375 72.6562 14.375H76.7812ZM81.9375 15.4062C81.9375 14.7188 82.2812 14.375 82.9688 14.375C83.6562 14.375 84 14.7188 84 15.4062V20.5625H88.125C89.2604 20.5625 90.2292 20.9583 91.0312 21.75C91.8438 22.5417 92.25 23.4948 92.25 24.6094V33.9688C92.25 34.6562 91.9062 35 91.2188 35C90.5312 35 90.1875 34.6562 90.1875 33.9688V24.6875C90.1875 24.1042 89.9896 23.6146 89.5938 23.2188C89.1979 22.8229 88.7083 22.625 88.125 22.625H84V33.9688C84 34.6562 83.6562 35 82.9688 35C82.2812 35 81.9375 34.6562 81.9375 33.9688V15.4062ZM101.531 22.625C100.677 22.625 99.9479 22.9271 99.3438 23.5312C98.7396 24.1354 98.4375 24.8646 98.4375 25.7188V26.75H104.625V25.7188C104.625 24.8646 104.323 24.1354 103.719 23.5312C103.115 22.9271 102.385 22.625 101.531 22.625ZM98.4375 28.8125V30.875C98.4375 31.4375 98.6406 31.9219 99.0469 32.3281C99.4531 32.7344 99.9375 32.9375 100.5 32.9375H105.656C106.344 32.9375 106.688 33.2812 106.688 33.9688C106.688 34.6562 106.344 35 105.656 35H100.5C99.3438 35 98.3646 34.6042 97.5625 33.8125C96.7708 33.0104 96.375 32.0312 96.375 30.875V25.7188C96.375 24.2917 96.875 23.0781 97.875 22.0781C98.8854 21.0677 100.104 20.5625 101.531 20.5625C102.979 20.5625 104.198 21.0625 105.188 22.0625C106.188 23.0521 106.688 24.2708 106.688 25.7188V28.8125H98.4375ZM112.875 24.6875V30.875C112.875 31.4375 113.078 31.9219 113.484 32.3281C113.891 32.7344 114.375 32.9375 114.938 32.9375H118.031C118.719 32.9375 119.062 33.2812 119.062 33.9688C119.062 34.6562 118.719 35 118.031 35H114.938C113.781 35 112.802 34.6042 112 33.8125C111.208 33.0104 110.812 32.0312 110.812 30.875V24.6875C110.812 23.5312 111.208 22.5573 112 21.7656C112.802 20.9635 113.781 20.5625 114.938 20.5625H118.031C118.719 20.5625 119.062 20.9062 119.062 21.5938C119.062 22.2812 118.719 22.625 118.031 22.625H114.938C114.365 22.625 113.875 22.8281 113.469 23.2344C113.073 23.6302 112.875 24.1146 112.875 24.6875ZM125.25 28.2969V33.9688C125.25 34.6562 124.906 35 124.219 35C123.531 35 123.188 34.6562 123.188 33.9688V15.4062C123.188 14.7188 123.531 14.375 124.219 14.375C124.906 14.375 125.25 14.7188 125.25 15.4062V25.7031L131.844 20.7656C132.021 20.6302 132.229 20.5625 132.469 20.5625C133.156 20.5625 133.5 20.9062 133.5 21.5938C133.5 21.9479 133.365 22.224 133.094 22.4219L129.094 25.4219L133.391 33.4844C133.464 33.6198 133.5 33.7812 133.5 33.9688C133.5 34.25 133.396 34.4948 133.188 34.7031C132.99 34.901 132.75 35 132.469 35C132.062 35 131.76 34.8177 131.562 34.4531L127.422 26.6875L125.25 28.2969Z" fill="black"/>
</svg>
