<svg width="337" height="78" viewBox="0 0 337 78" fill="none" xmlns="http://www.w3.org/2000/svg">
<rect y="26" width="337" height="52" rx="20" fill="#FAE52A" fill-opacity="0.6"/>
<path d="M11.3281 15.2266V1.30469C11.3281 0.789062 11.5859 0.53125 12.1016 0.53125H18.2891C18.8047 0.53125 19.0625 0.789062 19.0625 1.30469C19.0625 1.82031 18.8047 2.07812 18.2891 2.07812H12.875V6.71875H18.2891C18.8047 6.71875 19.0625 6.97656 19.0625 7.49219C19.0625 8.00781 18.8047 8.26562 18.2891 8.26562H12.875V15.2266C12.875 15.7422 12.6172 16 12.1016 16C11.5859 16 11.3281 15.7422 11.3281 15.2266ZM29.8906 5.94531V15.2266C29.8906 15.7422 29.6328 16 29.1172 16H25.25C24.3828 16 23.6484 15.7031 23.0469 15.1094C22.4531 14.5078 22.1562 13.7734 22.1562 12.9062V5.94531C22.1562 5.42969 22.4141 5.17188 22.9297 5.17188C23.4453 5.17188 23.7031 5.42969 23.7031 5.94531V12.9062C23.7031 13.3281 23.8555 13.6914 24.1602 13.9961C24.4648 14.3008 24.8281 14.4531 25.25 14.4531H28.3438V5.94531C28.3438 5.42969 28.6016 5.17188 29.1172 5.17188C29.6328 5.17188 29.8906 5.42969 29.8906 5.94531ZM32.9844 1.30469C32.9844 0.789062 33.2422 0.53125 33.7578 0.53125C34.2734 0.53125 34.5312 0.789062 34.5312 1.30469V13.6797C34.5312 14.0781 34.7891 14.3359 35.3047 14.4531C35.8203 14.5703 36.0781 14.8281 36.0781 15.2266C36.0781 15.7422 35.8203 16 35.3047 16C34.6094 16 34.0469 15.7969 33.6172 15.3906C33.1953 14.9766 32.9844 14.4062 32.9844 13.6797V1.30469ZM39.1719 1.30469C39.1719 0.789062 39.4297 0.53125 39.9453 0.53125C40.4609 0.53125 40.7188 0.789062 40.7188 1.30469V13.6797C40.7188 14.0781 40.9766 14.3359 41.4922 14.4531C42.0078 14.5703 42.2656 14.8281 42.2656 15.2266C42.2656 15.7422 42.0078 16 41.4922 16C40.7969 16 40.2344 15.7969 39.8047 15.3906C39.3828 14.9766 39.1719 14.4062 39.1719 13.6797V1.30469ZM45.3594 15.2266V5.94531C45.3594 5.42969 45.6172 5.17188 46.1328 5.17188H50C50.8672 5.17188 51.5977 5.47266 52.1914 6.07422C52.793 6.66797 53.0938 7.39844 53.0938 8.26562V15.2266C53.0938 15.7422 52.8359 16 52.3203 16C51.8047 16 51.5469 15.7422 51.5469 15.2266V8.26562C51.5469 7.82812 51.3984 7.46094 51.1016 7.16406C50.8047 6.86719 50.4375 6.71875 50 6.71875H46.9062V15.2266C46.9062 15.7422 46.6484 16 46.1328 16C45.6172 16 45.3594 15.7422 45.3594 15.2266ZM59.2812 16C58.4141 16 57.6797 15.7031 57.0781 15.1094C56.4844 14.5078 56.1875 13.7734 56.1875 12.9062C56.1875 12.3438 56.3242 11.8242 56.5977 11.3477C57.1836 10.3242 58.0781 9.8125 59.2812 9.8125H62.375V8.26562C62.375 7.82812 62.2266 7.46094 61.9297 7.16406C61.6328 6.86719 61.2656 6.71875 60.8281 6.71875H57.7344C57.2188 6.71875 56.9609 6.46094 56.9609 5.94531C56.9609 5.42969 57.2188 5.17188 57.7344 5.17188H60.8281C61.6953 5.17188 62.4258 5.47266 63.0195 6.07422C63.6211 6.66797 63.9219 7.39844 63.9219 8.26562V15.2266C63.9219 15.7422 63.6641 16 63.1484 16H59.2812ZM62.375 11.3594H59.2812C58.8516 11.3594 58.4844 11.5117 58.1797 11.8164C57.8828 12.1133 57.7344 12.4766 57.7344 12.9062C57.7344 13.3281 57.8867 13.6914 58.1914 13.9961C58.4961 14.3008 58.8594 14.4531 59.2812 14.4531H62.375V11.3594ZM67.7891 5.17188H74.75C75.6172 5.17188 76.3477 5.47266 76.9414 6.07422C77.543 6.66797 77.8438 7.39844 77.8438 8.26562V15.2266C77.8438 15.7422 77.5859 16 77.0703 16C76.5547 16 76.2969 15.7422 76.2969 15.2266V8.26562C76.2969 7.82812 76.1484 7.46094 75.8516 7.16406C75.5547 6.86719 75.1875 6.71875 74.75 6.71875H73.2031V15.2266C73.2031 15.7422 72.9453 16 72.4297 16C71.9141 16 71.6562 15.7422 71.6562 15.2266V6.71875H68.5625V15.2266C68.5625 15.7422 68.3047 16 67.7891 16C67.2734 16 67.0156 15.7422 67.0156 15.2266V5.94531C67.0156 5.42969 67.2734 5.17188 67.7891 5.17188ZM84.8047 6.71875C84.1641 6.71875 83.6172 6.94531 83.1641 7.39844C82.7109 7.85156 82.4844 8.39844 82.4844 9.03906V9.8125H87.125V9.03906C87.125 8.39844 86.8984 7.85156 86.4453 7.39844C85.9922 6.94531 85.4453 6.71875 84.8047 6.71875ZM82.4844 11.3594V12.9062C82.4844 13.3281 82.6367 13.6914 82.9414 13.9961C83.2461 14.3008 83.6094 14.4531 84.0312 14.4531H87.8984C88.4141 14.4531 88.6719 14.7109 88.6719 15.2266C88.6719 15.7422 88.4141 16 87.8984 16H84.0312C83.1641 16 82.4297 15.7031 81.8281 15.1094C81.2344 14.5078 80.9375 13.7734 80.9375 12.9062V9.03906C80.9375 7.96875 81.3125 7.05859 82.0625 6.30859C82.8203 5.55078 83.7344 5.17188 84.8047 5.17188C85.8906 5.17188 86.8047 5.54688 87.5469 6.29688C88.2969 7.03906 88.6719 7.95312 88.6719 9.03906V11.3594H82.4844Z" fill="black"/>
<path d="M29 48V51V48ZM29 51V54V51ZM29 51H32H29ZM29 51H26H29ZM24 46C24 47.0609 23.5786 48.0783 22.8284 48.8284C22.0783 49.5786 21.0609 50 20 50C18.9391 50 17.9217 49.5786 17.1716 48.8284C16.4214 48.0783 16 47.0609 16 46C16 44.9391 16.4214 43.9217 17.1716 43.1716C17.9217 42.4214 18.9391 42 20 42C21.0609 42 22.0783 42.4214 22.8284 43.1716C23.5786 43.9217 24 44.9391 24 46V46ZM14 59C14 57.4087 14.6321 55.8826 15.7574 54.7574C16.8826 53.6321 18.4087 53 20 53C21.5913 53 23.1174 53.6321 24.2426 54.7574C25.3679 55.8826 26 57.4087 26 59V60H14V59Z" stroke="black" stroke-width="2" stroke-linecap="round" stroke-linejoin="round"/>
</svg>
