<svg width="233" height="195" viewBox="0 0 233 195" fill="none" xmlns="http://www.w3.org/2000/svg">
<path d="M148.343 94.2906C152.615 94.2906 163.197 60.2062 211.156 73.775C188.05 88.5219 200.962 108.956 177.857 135.566C169.753 145.074 159.108 152.868 146.771 158.327C134.434 163.785 120.744 166.759 106.792 167.009C95.3278 167.107 83.9457 165.384 73.2494 161.931C85.357 160.545 96.9029 156.787 106.949 150.964C116.994 145.14 125.256 137.415 131.062 128.416C118.221 131.513 104.503 130.869 92.1563 126.588C79.8096 122.307 69.5661 114.643 63.1042 104.853C70.4815 103.093 78.1029 102.151 85.7731 102.05C85.7731 102.05 46.2602 88.7656 42.0856 78.2844C47.9592 74.425 66.0652 76.5781 66.0652 76.5781C66.0652 76.5781 24.2708 57.2812 21.8438 44.1187C95.8698 44.1187 144.314 94.2906 148.343 94.2906Z" stroke="#B302D0" stroke-linecap="round" stroke-linejoin="round"/>
<path d="M118.053 73.125C118.053 73.125 92.9573 46.3937 92.2291 27.9906C111.209 28.4375 147.033 52.8125 151.79 91.0406" stroke="#B302D0" stroke-linecap="round" stroke-linejoin="round"/>
<path d="M184.313 83.7688C186.323 83.7688 187.953 82.4046 187.953 80.7219C187.953 79.0391 186.323 77.675 184.313 77.675C182.302 77.675 180.672 79.0391 180.672 80.7219C180.672 82.4046 182.302 83.7688 184.313 83.7688Z" fill="#B302D0"/>
</svg>
