<svg width="420" height="700" viewBox="0 0 420 700" fill="none" xmlns="http://www.w3.org/2000/svg">
<rect x="0.5" y="0.5" width="419" height="699" rx="19.5" fill="#67CCC6"/>
<path d="M67.5391 461.41C69.0078 462.285 69.7422 463.602 69.7422 465.359C69.7422 466.641 69.2891 467.734 68.3828 468.641C67.4766 469.547 66.3828 470 65.1016 470H61.2344C60.7188 470 60.4609 469.742 60.4609 469.227V455.305C60.4609 454.789 60.7188 454.531 61.2344 454.531H65.1016C66.1875 454.531 67.1016 454.906 67.8438 455.656C68.5938 456.398 68.9688 457.312 68.9688 458.398C68.9688 459.633 68.4922 460.637 67.5391 461.41ZM62.0078 456.078V460.719H65.1016C65.7422 460.719 66.2891 460.492 66.7422 460.039C67.1953 459.586 67.4219 459.039 67.4219 458.398C67.4219 457.758 67.1953 457.211 66.7422 456.758C66.2891 456.305 65.7422 456.078 65.1016 456.078H62.0078ZM62.0078 462.266V468.453H65.1016C65.9688 468.453 66.6992 468.156 67.293 467.562C67.8945 466.961 68.1953 466.227 68.1953 465.359C68.1953 464.492 67.8945 463.762 67.293 463.168C66.6992 462.566 65.9688 462.266 65.1016 462.266H62.0078ZM72.8359 459.945C72.8359 459.43 73.0938 459.172 73.6094 459.172C74.125 459.172 74.3828 459.43 74.3828 459.945V469.227C74.3828 469.742 74.125 470 73.6094 470C73.0938 470 72.8359 469.742 72.8359 469.227V459.945ZM72.8359 456.078V455.305C72.8359 454.789 73.0938 454.531 73.6094 454.531C74.125 454.531 74.3828 454.789 74.3828 455.305V456.078C74.3828 456.594 74.125 456.852 73.6094 456.852C73.0938 456.852 72.8359 456.594 72.8359 456.078ZM77.4766 459.945C77.4766 459.43 77.7344 459.172 78.25 459.172H82.8906C83.4062 459.172 83.6641 459.43 83.6641 459.945V461.492C83.6641 462.008 83.4062 462.266 82.8906 462.266C82.375 462.266 82.1172 462.008 82.1172 461.492V460.719H79.0234V469.227C79.0234 469.742 78.7656 470 78.25 470C77.7344 470 77.4766 469.742 77.4766 469.227V459.945ZM88.3047 460.719H87.5312C87.0156 460.719 86.7578 460.461 86.7578 459.945C86.7578 459.43 87.0156 459.172 87.5312 459.172H88.3047V455.305C88.3047 454.789 88.5625 454.531 89.0781 454.531C89.5938 454.531 89.8516 454.789 89.8516 455.305V459.172H92.1719C92.6875 459.172 92.9453 459.43 92.9453 459.945C92.9453 460.461 92.6875 460.719 92.1719 460.719H89.8516V469.227C89.8516 469.742 89.5938 470 89.0781 470C88.5625 470 88.3047 469.742 88.3047 469.227V460.719ZM96.0391 455.305C96.0391 454.789 96.2969 454.531 96.8125 454.531C97.3281 454.531 97.5859 454.789 97.5859 455.305V459.172H100.68C101.531 459.172 102.258 459.469 102.859 460.062C103.469 460.656 103.773 461.371 103.773 462.207V469.227C103.773 469.742 103.516 470 103 470C102.484 470 102.227 469.742 102.227 469.227V462.266C102.227 461.828 102.078 461.461 101.781 461.164C101.484 460.867 101.117 460.719 100.68 460.719H97.5859V469.227C97.5859 469.742 97.3281 470 96.8125 470C96.2969 470 96.0391 469.742 96.0391 469.227V455.305ZM106.867 462.266C106.867 461.703 107.004 461.184 107.277 460.707C107.863 459.684 108.758 459.172 109.961 459.172H113.055V455.305C113.055 454.789 113.312 454.531 113.828 454.531C114.344 454.531 114.602 454.789 114.602 455.305V469.227C114.602 469.742 114.344 470 113.828 470H109.961C109.094 470 108.359 469.703 107.758 469.109C107.164 468.508 106.867 467.773 106.867 466.906V462.266ZM109.961 460.719C109.531 460.719 109.164 460.871 108.859 461.176C108.562 461.473 108.414 461.836 108.414 462.266V466.906C108.414 467.328 108.566 467.691 108.871 467.996C109.176 468.301 109.539 468.453 109.961 468.453H113.055V460.719H109.961ZM120.789 470C119.922 470 119.188 469.703 118.586 469.109C117.992 468.508 117.695 467.773 117.695 466.906C117.695 466.344 117.832 465.824 118.105 465.348C118.691 464.324 119.586 463.812 120.789 463.812H123.883V462.266C123.883 461.828 123.734 461.461 123.438 461.164C123.141 460.867 122.773 460.719 122.336 460.719H119.242C118.727 460.719 118.469 460.461 118.469 459.945C118.469 459.43 118.727 459.172 119.242 459.172H122.336C123.203 459.172 123.934 459.473 124.527 460.074C125.129 460.668 125.43 461.398 125.43 462.266V469.227C125.43 469.742 125.172 470 124.656 470H120.789ZM123.883 465.359H120.789C120.359 465.359 119.992 465.512 119.688 465.816C119.391 466.113 119.242 466.477 119.242 466.906C119.242 467.328 119.395 467.691 119.699 467.996C120.004 468.301 120.367 468.453 120.789 468.453H123.883V465.359ZM130.07 460.719H129.297C128.781 460.719 128.523 460.461 128.523 459.945C128.523 459.43 128.781 459.172 129.297 459.172H130.07V455.305C130.07 454.789 130.328 454.531 130.844 454.531C131.359 454.531 131.617 454.789 131.617 455.305V459.172H133.938C134.453 459.172 134.711 459.43 134.711 459.945C134.711 460.461 134.453 460.719 133.938 460.719H131.617V469.227C131.617 469.742 131.359 470 130.844 470C130.328 470 130.07 469.742 130.07 469.227V460.719ZM141.672 460.719C141.031 460.719 140.484 460.945 140.031 461.398C139.578 461.852 139.352 462.398 139.352 463.039V463.812H143.992V463.039C143.992 462.398 143.766 461.852 143.312 461.398C142.859 460.945 142.312 460.719 141.672 460.719ZM139.352 465.359V466.906C139.352 467.328 139.504 467.691 139.809 467.996C140.113 468.301 140.477 468.453 140.898 468.453H144.766C145.281 468.453 145.539 468.711 145.539 469.227C145.539 469.742 145.281 470 144.766 470H140.898C140.031 470 139.297 469.703 138.695 469.109C138.102 468.508 137.805 467.773 137.805 466.906V463.039C137.805 461.969 138.18 461.059 138.93 460.309C139.688 459.551 140.602 459.172 141.672 459.172C142.758 459.172 143.672 459.547 144.414 460.297C145.164 461.039 145.539 461.953 145.539 463.039V465.359H139.352Z" fill="black"/>
<path d="M70.3281 356.227V342.305C70.3281 341.789 70.5859 341.531 71.1016 341.531H77.2891C77.8047 341.531 78.0625 341.789 78.0625 342.305C78.0625 342.82 77.8047 343.078 77.2891 343.078H71.875V347.719H77.2891C77.8047 347.719 78.0625 347.977 78.0625 348.492C78.0625 349.008 77.8047 349.266 77.2891 349.266H71.875V356.227C71.875 356.742 71.6172 357 71.1016 357C70.5859 357 70.3281 356.742 70.3281 356.227ZM88.8906 346.945V356.227C88.8906 356.742 88.6328 357 88.1172 357H84.25C83.3828 357 82.6484 356.703 82.0469 356.109C81.4531 355.508 81.1562 354.773 81.1562 353.906V346.945C81.1562 346.43 81.4141 346.172 81.9297 346.172C82.4453 346.172 82.7031 346.43 82.7031 346.945V353.906C82.7031 354.328 82.8555 354.691 83.1602 354.996C83.4648 355.301 83.8281 355.453 84.25 355.453H87.3438V346.945C87.3438 346.43 87.6016 346.172 88.1172 346.172C88.6328 346.172 88.8906 346.43 88.8906 346.945ZM91.9844 342.305C91.9844 341.789 92.2422 341.531 92.7578 341.531C93.2734 341.531 93.5312 341.789 93.5312 342.305V354.68C93.5312 355.078 93.7891 355.336 94.3047 355.453C94.8203 355.57 95.0781 355.828 95.0781 356.227C95.0781 356.742 94.8203 357 94.3047 357C93.6094 357 93.0469 356.797 92.6172 356.391C92.1953 355.977 91.9844 355.406 91.9844 354.68V342.305ZM98.1719 342.305C98.1719 341.789 98.4297 341.531 98.9453 341.531C99.4609 341.531 99.7188 341.789 99.7188 342.305V354.68C99.7188 355.078 99.9766 355.336 100.492 355.453C101.008 355.57 101.266 355.828 101.266 356.227C101.266 356.742 101.008 357 100.492 357C99.7969 357 99.2344 356.797 98.8047 356.391C98.3828 355.977 98.1719 355.406 98.1719 354.68V342.305ZM104.359 356.227V346.945C104.359 346.43 104.617 346.172 105.133 346.172H109C109.867 346.172 110.598 346.473 111.191 347.074C111.793 347.668 112.094 348.398 112.094 349.266V356.227C112.094 356.742 111.836 357 111.32 357C110.805 357 110.547 356.742 110.547 356.227V349.266C110.547 348.828 110.398 348.461 110.102 348.164C109.805 347.867 109.438 347.719 109 347.719H105.906V356.227C105.906 356.742 105.648 357 105.133 357C104.617 357 104.359 356.742 104.359 356.227ZM118.281 357C117.414 357 116.68 356.703 116.078 356.109C115.484 355.508 115.188 354.773 115.188 353.906C115.188 353.344 115.324 352.824 115.598 352.348C116.184 351.324 117.078 350.812 118.281 350.812H121.375V349.266C121.375 348.828 121.227 348.461 120.93 348.164C120.633 347.867 120.266 347.719 119.828 347.719H116.734C116.219 347.719 115.961 347.461 115.961 346.945C115.961 346.43 116.219 346.172 116.734 346.172H119.828C120.695 346.172 121.426 346.473 122.02 347.074C122.621 347.668 122.922 348.398 122.922 349.266V356.227C122.922 356.742 122.664 357 122.148 357H118.281ZM121.375 352.359H118.281C117.852 352.359 117.484 352.512 117.18 352.816C116.883 353.113 116.734 353.477 116.734 353.906C116.734 354.328 116.887 354.691 117.191 354.996C117.496 355.301 117.859 355.453 118.281 355.453H121.375V352.359ZM126.789 346.172H133.75C134.617 346.172 135.348 346.473 135.941 347.074C136.543 347.668 136.844 348.398 136.844 349.266V356.227C136.844 356.742 136.586 357 136.07 357C135.555 357 135.297 356.742 135.297 356.227V349.266C135.297 348.828 135.148 348.461 134.852 348.164C134.555 347.867 134.188 347.719 133.75 347.719H132.203V356.227C132.203 356.742 131.945 357 131.43 357C130.914 357 130.656 356.742 130.656 356.227V347.719H127.562V356.227C127.562 356.742 127.305 357 126.789 357C126.273 357 126.016 356.742 126.016 356.227V346.945C126.016 346.43 126.273 346.172 126.789 346.172ZM143.805 347.719C143.164 347.719 142.617 347.945 142.164 348.398C141.711 348.852 141.484 349.398 141.484 350.039V350.812H146.125V350.039C146.125 349.398 145.898 348.852 145.445 348.398C144.992 347.945 144.445 347.719 143.805 347.719ZM141.484 352.359V353.906C141.484 354.328 141.637 354.691 141.941 354.996C142.246 355.301 142.609 355.453 143.031 355.453H146.898C147.414 355.453 147.672 355.711 147.672 356.227C147.672 356.742 147.414 357 146.898 357H143.031C142.164 357 141.43 356.703 140.828 356.109C140.234 355.508 139.938 354.773 139.938 353.906V350.039C139.938 348.969 140.312 348.059 141.062 347.309C141.82 346.551 142.734 346.172 143.805 346.172C144.891 346.172 145.805 346.547 146.547 347.297C147.297 348.039 147.672 348.953 147.672 350.039V352.359H141.484Z" fill="black"/>
<path d="M57 347V350V347ZM57 350V353V350ZM57 350H60H57ZM57 350H54H57ZM52 345C52 346.061 51.5786 347.078 50.8284 347.828C50.0783 348.579 49.0609 349 48 349C46.9391 349 45.9217 348.579 45.1716 347.828C44.4214 347.078 44 346.061 44 345C44 343.939 44.4214 342.922 45.1716 342.172C45.9217 341.421 46.9391 341 48 341C49.0609 341 50.0783 341.421 50.8284 342.172C51.5786 342.922 52 343.939 52 345V345ZM42 358C42 356.409 42.6321 354.883 43.7574 353.757C44.8826 352.632 46.4087 352 48 352C49.5913 352 51.1174 352.632 52.2426 353.757C53.3679 354.883 54 356.409 54 358V359H42V358Z" stroke="black" stroke-width="2" stroke-linecap="round" stroke-linejoin="round"/>
<path d="M42 459V455V459ZM50 459V455V459ZM41 463H51H41ZM39 473H53C53.5304 473 54.0391 472.789 54.4142 472.414C54.7893 472.039 55 471.53 55 471V459C55 458.47 54.7893 457.961 54.4142 457.586C54.0391 457.211 53.5304 457 53 457H39C38.4696 457 37.9609 457.211 37.5858 457.586C37.2107 457.961 37 458.47 37 459V471C37 471.53 37.2107 472.039 37.5858 472.414C37.9609 472.789 38.4696 473 39 473Z" stroke="black" stroke-width="2" stroke-linecap="round" stroke-linejoin="round"/>
<rect width="337" height="63" rx="20" transform="matrix(1 0 0 -1 39 116)" fill="#FAE52A" fill-opacity="0.6"/>
<path d="M64.25 83C63.7708 83 63.4375 82.75 63.25 82.25L61.1562 76.6406L59.0625 82.2188C58.8646 82.7396 58.5312 83 58.0625 83C57.5208 83 57.1719 82.6771 57.0156 82.0312L53.9688 69.8438C53.9479 69.7604 53.9375 69.6615 53.9375 69.5469C53.9375 68.8906 54.2812 68.5625 54.9688 68.5625C55.5104 68.5625 55.8438 68.8229 55.9688 69.3438L58.25 78.4844L60.1719 73.3594C60.3385 72.9115 60.6667 72.6875 61.1562 72.6875C61.6354 72.6875 61.9583 72.9115 62.125 73.3594L64.0469 78.5L66.3438 69.3438C66.4792 68.8229 66.8125 68.5625 67.3438 68.5625C67.6146 68.5625 67.8542 68.6615 68.0625 68.8594C68.2708 69.0469 68.375 69.276 68.375 69.5469C68.375 69.6615 68.3646 69.7604 68.3438 69.8438L65.2812 82.0938C65.1354 82.6979 64.7917 83 64.25 83ZM77.6562 70.625C76.8021 70.625 76.0729 70.9271 75.4688 71.5312C74.8646 72.1354 74.5625 72.8646 74.5625 73.7188V74.75H80.75V73.7188C80.75 72.8646 80.4479 72.1354 79.8438 71.5312C79.2396 70.9271 78.5104 70.625 77.6562 70.625ZM74.5625 76.8125V78.875C74.5625 79.4375 74.7656 79.9219 75.1719 80.3281C75.5781 80.7344 76.0625 80.9375 76.625 80.9375H81.7812C82.4688 80.9375 82.8125 81.2812 82.8125 81.9688C82.8125 82.6562 82.4688 83 81.7812 83H76.625C75.4688 83 74.4896 82.6042 73.6875 81.8125C72.8958 81.0104 72.5 80.0312 72.5 78.875V73.7188C72.5 72.2917 73 71.0781 74 70.0781C75.0104 69.0677 76.2292 68.5625 77.6562 68.5625C79.1042 68.5625 80.3229 69.0625 81.3125 70.0625C82.3125 71.0521 82.8125 72.2708 82.8125 73.7188V76.8125H74.5625ZM86.9375 63.4062C86.9375 62.7188 87.2812 62.375 87.9688 62.375C88.6562 62.375 89 62.7188 89 63.4062V79.9062C89 80.4375 89.3438 80.7812 90.0312 80.9375C90.7188 81.0938 91.0625 81.4375 91.0625 81.9688C91.0625 82.6562 90.7188 83 90.0312 83C89.1042 83 88.3542 82.7292 87.7812 82.1875C87.2188 81.6354 86.9375 80.875 86.9375 79.9062V63.4062ZM97.25 72.6875V78.875C97.25 79.4375 97.4531 79.9219 97.8594 80.3281C98.2656 80.7344 98.75 80.9375 99.3125 80.9375H102.406C103.094 80.9375 103.438 81.2812 103.438 81.9688C103.438 82.6562 103.094 83 102.406 83H99.3125C98.1562 83 97.1771 82.6042 96.375 81.8125C95.5833 81.0104 95.1875 80.0312 95.1875 78.875V72.6875C95.1875 71.5312 95.5833 70.5573 96.375 69.7656C97.1771 68.9635 98.1562 68.5625 99.3125 68.5625H102.406C103.094 68.5625 103.438 68.9062 103.438 69.5938C103.438 70.2812 103.094 70.625 102.406 70.625H99.3125C98.7396 70.625 98.25 70.8281 97.8438 71.2344C97.4479 71.6302 97.25 72.1146 97.25 72.6875ZM107.562 77.8438V73.7188C107.562 72.2917 108.062 71.0781 109.062 70.0781C110.073 69.0677 111.292 68.5625 112.719 68.5625C114.167 68.5625 115.385 69.0625 116.375 70.0625C117.375 71.0521 117.875 72.2708 117.875 73.7188V77.8438C117.875 79.2708 117.37 80.4896 116.359 81.5C115.359 82.5 114.146 83 112.719 83C111.292 83 110.073 82.5 109.062 81.5C108.062 80.4896 107.562 79.2708 107.562 77.8438ZM115.812 77.8438V73.7188C115.812 72.8646 115.51 72.1354 114.906 71.5312C114.302 70.9271 113.573 70.625 112.719 70.625C111.865 70.625 111.135 70.9271 110.531 71.5312C109.927 72.1354 109.625 72.8646 109.625 73.7188V77.8438C109.625 78.7083 109.922 79.4427 110.516 80.0469C111.12 80.6406 111.854 80.9375 112.719 80.9375C113.573 80.9375 114.302 80.6354 114.906 80.0312C115.51 79.4271 115.812 78.6979 115.812 77.8438ZM123.031 68.5625H132.312C133.469 68.5625 134.443 68.9635 135.234 69.7656C136.036 70.5573 136.438 71.5312 136.438 72.6875V81.9688C136.438 82.6562 136.094 83 135.406 83C134.719 83 134.375 82.6562 134.375 81.9688V72.6875C134.375 72.1042 134.177 71.6146 133.781 71.2188C133.385 70.8229 132.896 70.625 132.312 70.625H130.25V81.9688C130.25 82.6562 129.906 83 129.219 83C128.531 83 128.188 82.6562 128.188 81.9688V70.625H124.062V81.9688C124.062 82.6562 123.719 83 123.031 83C122.344 83 122 82.6562 122 81.9688V69.5938C122 68.9062 122.344 68.5625 123.031 68.5625ZM145.719 70.625C144.865 70.625 144.135 70.9271 143.531 71.5312C142.927 72.1354 142.625 72.8646 142.625 73.7188V74.75H148.812V73.7188C148.812 72.8646 148.51 72.1354 147.906 71.5312C147.302 70.9271 146.573 70.625 145.719 70.625ZM142.625 76.8125V78.875C142.625 79.4375 142.828 79.9219 143.234 80.3281C143.641 80.7344 144.125 80.9375 144.688 80.9375H149.844C150.531 80.9375 150.875 81.2812 150.875 81.9688C150.875 82.6562 150.531 83 149.844 83H144.688C143.531 83 142.552 82.6042 141.75 81.8125C140.958 81.0104 140.562 80.0312 140.562 78.875V73.7188C140.562 72.2917 141.062 71.0781 142.062 70.0781C143.073 69.0677 144.292 68.5625 145.719 68.5625C147.167 68.5625 148.385 69.0625 149.375 70.0625C150.375 71.0521 150.875 72.2708 150.875 73.7188V76.8125H142.625ZM169.438 70.625H168.406C167.719 70.625 167.375 70.2812 167.375 69.5938C167.375 68.9062 167.719 68.5625 168.406 68.5625H169.438V63.4062C169.438 62.7188 169.781 62.375 170.469 62.375C171.156 62.375 171.5 62.7188 171.5 63.4062V68.5625H174.594C175.281 68.5625 175.625 68.9062 175.625 69.5938C175.625 70.2812 175.281 70.625 174.594 70.625H171.5V81.9688C171.5 82.6562 171.156 83 170.469 83C169.781 83 169.438 82.6562 169.438 81.9688V70.625ZM179.75 77.8438V73.7188C179.75 72.2917 180.25 71.0781 181.25 70.0781C182.26 69.0677 183.479 68.5625 184.906 68.5625C186.354 68.5625 187.573 69.0625 188.562 70.0625C189.562 71.0521 190.062 72.2708 190.062 73.7188V77.8438C190.062 79.2708 189.557 80.4896 188.547 81.5C187.547 82.5 186.333 83 184.906 83C183.479 83 182.26 82.5 181.25 81.5C180.25 80.4896 179.75 79.2708 179.75 77.8438ZM188 77.8438V73.7188C188 72.8646 187.698 72.1354 187.094 71.5312C186.49 70.9271 185.76 70.625 184.906 70.625C184.052 70.625 183.323 70.9271 182.719 71.5312C182.115 72.1354 181.812 72.8646 181.812 73.7188V77.8438C181.812 78.7083 182.109 79.4427 182.703 80.0469C183.307 80.6406 184.042 80.9375 184.906 80.9375C185.76 80.9375 186.49 80.6354 187.094 80.0312C187.698 79.4271 188 78.6979 188 77.8438ZM208.625 72.6875V78.875C208.625 79.4375 208.828 79.9219 209.234 80.3281C209.641 80.7344 210.125 80.9375 210.688 80.9375H213.781C214.469 80.9375 214.812 81.2812 214.812 81.9688C214.812 82.6562 214.469 83 213.781 83H210.688C209.531 83 208.552 82.6042 207.75 81.8125C206.958 81.0104 206.562 80.0312 206.562 78.875V72.6875C206.562 71.5312 206.958 70.5573 207.75 69.7656C208.552 68.9635 209.531 68.5625 210.688 68.5625H213.781C214.469 68.5625 214.812 68.9062 214.812 69.5938C214.812 70.2812 214.469 70.625 213.781 70.625H210.688C210.115 70.625 209.625 70.8281 209.219 71.2344C208.823 71.6302 208.625 72.1146 208.625 72.6875ZM218.938 77.8438V73.7188C218.938 72.2917 219.438 71.0781 220.438 70.0781C221.448 69.0677 222.667 68.5625 224.094 68.5625C225.542 68.5625 226.76 69.0625 227.75 70.0625C228.75 71.0521 229.25 72.2708 229.25 73.7188V77.8438C229.25 79.2708 228.745 80.4896 227.734 81.5C226.734 82.5 225.521 83 224.094 83C222.667 83 221.448 82.5 220.438 81.5C219.438 80.4896 218.938 79.2708 218.938 77.8438ZM227.188 77.8438V73.7188C227.188 72.8646 226.885 72.1354 226.281 71.5312C225.677 70.9271 224.948 70.625 224.094 70.625C223.24 70.625 222.51 70.9271 221.906 71.5312C221.302 72.1354 221 72.8646 221 73.7188V77.8438C221 78.7083 221.297 79.4427 221.891 80.0469C222.495 80.6406 223.229 80.9375 224.094 80.9375C224.948 80.9375 225.677 80.6354 226.281 80.0312C226.885 79.4271 227.188 78.6979 227.188 77.8438ZM233.375 81.9688V69.5938C233.375 68.9062 233.719 68.5625 234.406 68.5625H239.562C240.719 68.5625 241.693 68.9635 242.484 69.7656C243.286 70.5573 243.688 71.5312 243.688 72.6875V81.9688C243.688 82.6562 243.344 83 242.656 83C241.969 83 241.625 82.6562 241.625 81.9688V72.6875C241.625 72.1042 241.427 71.6146 241.031 71.2188C240.635 70.8229 240.146 70.625 239.562 70.625H235.438V81.9688C235.438 82.6562 235.094 83 234.406 83C233.719 83 233.375 82.6562 233.375 81.9688ZM256.062 79.3906C256.062 78.7344 255.771 78.2656 255.188 77.9844L249.891 75.4375C248.505 74.7708 247.812 73.6823 247.812 72.1719C247.812 70.9844 248.302 70.0677 249.281 69.4219C250.125 68.8594 251.177 68.5781 252.438 68.5781C253.969 68.5781 255.339 68.9583 256.547 69.7188C256.911 69.9479 257.094 70.25 257.094 70.625C257.094 70.9062 256.99 71.151 256.781 71.3594C256.583 71.5573 256.344 71.6562 256.062 71.6562C255.875 71.6562 255.714 71.6146 255.578 71.5312C254.589 70.9375 253.542 70.6406 252.438 70.6406C250.729 70.6406 249.875 71.151 249.875 72.1719C249.875 72.8177 250.156 73.276 250.719 73.5469L256.062 76.125C257.438 76.7917 258.125 77.8802 258.125 79.3906C258.125 80.6406 257.63 81.5781 256.641 82.2031C255.797 82.7344 254.708 83 253.375 83C251.396 83 249.734 82.6198 248.391 81.8594C248.005 81.6406 247.812 81.3333 247.812 80.9375C247.812 80.6562 247.911 80.4167 248.109 80.2188C248.318 80.0104 248.562 79.9062 248.844 79.9062C248.979 79.9062 249.109 79.9323 249.234 79.9844C249.568 80.1302 250.057 80.3229 250.703 80.5625C251.641 80.8125 252.552 80.9375 253.438 80.9375C255.188 80.9375 256.062 80.4219 256.062 79.3906ZM272.562 69.5938V81.9688C272.562 82.6562 272.219 83 271.531 83H266.375C265.219 83 264.24 82.6042 263.438 81.8125C262.646 81.0104 262.25 80.0312 262.25 78.875V69.5938C262.25 68.9062 262.594 68.5625 263.281 68.5625C263.969 68.5625 264.312 68.9062 264.312 69.5938V78.875C264.312 79.4375 264.516 79.9219 264.922 80.3281C265.328 80.7344 265.812 80.9375 266.375 80.9375H270.5V69.5938C270.5 68.9062 270.844 68.5625 271.531 68.5625C272.219 68.5625 272.562 68.9062 272.562 69.5938ZM276.688 63.4062C276.688 62.7188 277.031 62.375 277.719 62.375C278.406 62.375 278.75 62.7188 278.75 63.4062V79.9062C278.75 80.4375 279.094 80.7812 279.781 80.9375C280.469 81.0938 280.812 81.4375 280.812 81.9688C280.812 82.6562 280.469 83 279.781 83C278.854 83 278.104 82.7292 277.531 82.1875C276.969 81.6354 276.688 80.875 276.688 79.9062V63.4062ZM287 70.625H285.969C285.281 70.625 284.938 70.2812 284.938 69.5938C284.938 68.9062 285.281 68.5625 285.969 68.5625H287V63.4062C287 62.7188 287.344 62.375 288.031 62.375C288.719 62.375 289.062 62.7188 289.062 63.4062V68.5625H292.156C292.844 68.5625 293.188 68.9062 293.188 69.5938C293.188 70.2812 292.844 70.625 292.156 70.625H289.062V81.9688C289.062 82.6562 288.719 83 288.031 83C287.344 83 287 82.6562 287 81.9688V70.625ZM301.438 83C300.281 83 299.302 82.6042 298.5 81.8125C297.708 81.0104 297.312 80.0312 297.312 78.875C297.312 78.125 297.495 77.4323 297.859 76.7969C298.641 75.4323 299.833 74.75 301.438 74.75H305.562V72.6875C305.562 72.1042 305.365 71.6146 304.969 71.2188C304.573 70.8229 304.083 70.625 303.5 70.625H299.375C298.688 70.625 298.344 70.2812 298.344 69.5938C298.344 68.9062 298.688 68.5625 299.375 68.5625H303.5C304.656 68.5625 305.63 68.9635 306.422 69.7656C307.224 70.5573 307.625 71.5312 307.625 72.6875V81.9688C307.625 82.6562 307.281 83 306.594 83H301.438ZM305.562 76.8125H301.438C300.865 76.8125 300.375 77.0156 299.969 77.4219C299.573 77.8177 299.375 78.3021 299.375 78.875C299.375 79.4375 299.578 79.9219 299.984 80.3281C300.391 80.7344 300.875 80.9375 301.438 80.9375H305.562V76.8125ZM313.812 70.625H312.781C312.094 70.625 311.75 70.2812 311.75 69.5938C311.75 68.9062 312.094 68.5625 312.781 68.5625H313.812V63.4062C313.812 62.7188 314.156 62.375 314.844 62.375C315.531 62.375 315.875 62.7188 315.875 63.4062V68.5625H318.969C319.656 68.5625 320 68.9062 320 69.5938C320 70.2812 319.656 70.625 318.969 70.625H315.875V81.9688C315.875 82.6562 315.531 83 314.844 83C314.156 83 313.812 82.6562 313.812 81.9688V70.625ZM324.125 69.5938C324.125 68.9062 324.469 68.5625 325.156 68.5625C325.844 68.5625 326.188 68.9062 326.188 69.5938V81.9688C326.188 82.6562 325.844 83 325.156 83C324.469 83 324.125 82.6562 324.125 81.9688V69.5938ZM324.125 64.4375V63.4062C324.125 62.7188 324.469 62.375 325.156 62.375C325.844 62.375 326.188 62.7188 326.188 63.4062V64.4375C326.188 65.125 325.844 65.4688 325.156 65.4688C324.469 65.4688 324.125 65.125 324.125 64.4375ZM330.312 77.8438V73.7188C330.312 72.2917 330.812 71.0781 331.812 70.0781C332.823 69.0677 334.042 68.5625 335.469 68.5625C336.917 68.5625 338.135 69.0625 339.125 70.0625C340.125 71.0521 340.625 72.2708 340.625 73.7188V77.8438C340.625 79.2708 340.12 80.4896 339.109 81.5C338.109 82.5 336.896 83 335.469 83C334.042 83 332.823 82.5 331.812 81.5C330.812 80.4896 330.312 79.2708 330.312 77.8438ZM338.562 77.8438V73.7188C338.562 72.8646 338.26 72.1354 337.656 71.5312C337.052 70.9271 336.323 70.625 335.469 70.625C334.615 70.625 333.885 70.9271 333.281 71.5312C332.677 72.1354 332.375 72.8646 332.375 73.7188V77.8438C332.375 78.7083 332.672 79.4427 333.266 80.0469C333.87 80.6406 334.604 80.9375 335.469 80.9375C336.323 80.9375 337.052 80.6354 337.656 80.0312C338.26 79.4271 338.562 78.6979 338.562 77.8438ZM344.75 81.9688V69.5938C344.75 68.9062 345.094 68.5625 345.781 68.5625H350.938C352.094 68.5625 353.068 68.9635 353.859 69.7656C354.661 70.5573 355.062 71.5312 355.062 72.6875V81.9688C355.062 82.6562 354.719 83 354.031 83C353.344 83 353 82.6562 353 81.9688V72.6875C353 72.1042 352.802 71.6146 352.406 71.2188C352.01 70.8229 351.521 70.625 350.938 70.625H346.812V81.9688C346.812 82.6562 346.469 83 345.781 83C345.094 83 344.75 82.6562 344.75 81.9688ZM159.125 95.5625H160.156V93.5C160.156 92.3438 160.557 91.3698 161.359 90.5781C162.161 89.776 163.135 89.375 164.281 89.375H165.312C166 89.375 166.344 89.7188 166.344 90.4062C166.344 91.0938 166 91.4375 165.312 91.4375H164.281C163.708 91.4375 163.219 91.6406 162.812 92.0469C162.417 92.4427 162.219 92.9271 162.219 93.5V95.5625H165.312C166 95.5625 166.344 95.9062 166.344 96.5938C166.344 97.2812 166 97.625 165.312 97.625H162.219V108.969C162.219 109.656 161.875 110 161.188 110C160.5 110 160.156 109.656 160.156 108.969V97.625H159.125C158.438 97.625 158.094 97.2812 158.094 96.5938C158.094 95.9062 158.438 95.5625 159.125 95.5625ZM170.469 104.844V100.719C170.469 99.2917 170.969 98.0781 171.969 97.0781C172.979 96.0677 174.198 95.5625 175.625 95.5625C177.073 95.5625 178.292 96.0625 179.281 97.0625C180.281 98.0521 180.781 99.2708 180.781 100.719V104.844C180.781 106.271 180.276 107.49 179.266 108.5C178.266 109.5 177.052 110 175.625 110C174.198 110 172.979 109.5 171.969 108.5C170.969 107.49 170.469 106.271 170.469 104.844ZM178.719 104.844V100.719C178.719 99.8646 178.417 99.1354 177.812 98.5312C177.208 97.9271 176.479 97.625 175.625 97.625C174.771 97.625 174.042 97.9271 173.438 98.5312C172.833 99.1354 172.531 99.8646 172.531 100.719V104.844C172.531 105.708 172.828 106.443 173.422 107.047C174.026 107.641 174.76 107.938 175.625 107.938C176.479 107.938 177.208 107.635 177.812 107.031C178.417 106.427 178.719 105.698 178.719 104.844ZM184.906 96.5938C184.906 95.9062 185.25 95.5625 185.938 95.5625H192.125C192.812 95.5625 193.156 95.9062 193.156 96.5938V98.6562C193.156 99.3438 192.812 99.6875 192.125 99.6875C191.438 99.6875 191.094 99.3438 191.094 98.6562V97.625H186.969V108.969C186.969 109.656 186.625 110 185.938 110C185.25 110 184.906 109.656 184.906 108.969V96.5938ZM219.969 110C219.49 110 219.156 109.75 218.969 109.25L216.875 103.641L214.781 109.219C214.583 109.74 214.25 110 213.781 110C213.24 110 212.891 109.677 212.734 109.031L209.688 96.8438C209.667 96.7604 209.656 96.6615 209.656 96.5469C209.656 95.8906 210 95.5625 210.688 95.5625C211.229 95.5625 211.562 95.8229 211.688 96.3438L213.969 105.484L215.891 100.359C216.057 99.9115 216.385 99.6875 216.875 99.6875C217.354 99.6875 217.677 99.9115 217.844 100.359L219.766 105.5L222.062 96.3438C222.198 95.8229 222.531 95.5625 223.062 95.5625C223.333 95.5625 223.573 95.6615 223.781 95.8594C223.99 96.0469 224.094 96.276 224.094 96.5469C224.094 96.6615 224.083 96.7604 224.062 96.8438L221 109.094C220.854 109.698 220.51 110 219.969 110ZM232.344 110C231.188 110 230.208 109.604 229.406 108.812C228.615 108.01 228.219 107.031 228.219 105.875C228.219 105.125 228.401 104.432 228.766 103.797C229.547 102.432 230.74 101.75 232.344 101.75H236.469V99.6875C236.469 99.1042 236.271 98.6146 235.875 98.2188C235.479 97.8229 234.99 97.625 234.406 97.625H230.281C229.594 97.625 229.25 97.2812 229.25 96.5938C229.25 95.9062 229.594 95.5625 230.281 95.5625H234.406C235.562 95.5625 236.536 95.9635 237.328 96.7656C238.13 97.5573 238.531 98.5312 238.531 99.6875V108.969C238.531 109.656 238.188 110 237.5 110H232.344ZM236.469 103.812H232.344C231.771 103.812 231.281 104.016 230.875 104.422C230.479 104.818 230.281 105.302 230.281 105.875C230.281 106.438 230.484 106.922 230.891 107.328C231.297 107.734 231.781 107.938 232.344 107.938H236.469V103.812ZM242.656 96.5938C242.656 95.9062 243 95.5625 243.688 95.5625H249.875C250.562 95.5625 250.906 95.9062 250.906 96.5938V98.6562C250.906 99.3438 250.562 99.6875 249.875 99.6875C249.188 99.6875 248.844 99.3438 248.844 98.6562V97.625H244.719V108.969C244.719 109.656 244.375 110 243.688 110C243 110 242.656 109.656 242.656 108.969V96.5938Z" fill="black"/>
<rect x="0.5" y="0.5" width="419" height="699" rx="19.5" stroke="#2C619F"/>
</svg>
