<svg width="337" height="63" viewBox="0 0 337 63" fill="none" xmlns="http://www.w3.org/2000/svg">
<rect width="337" height="63" rx="20" transform="matrix(1 0 0 -1 0 63)" fill="#FAE52A" fill-opacity="0.6"/>
<path d="M24.25 30C23.7708 30 23.4375 29.75 23.25 29.25L21.1562 23.6406L19.0625 29.2188C18.8646 29.7396 18.5312 30 18.0625 30C17.5208 30 17.1719 29.6771 17.0156 29.0312L13.9688 16.8438C13.9479 16.7604 13.9375 16.6615 13.9375 16.5469C13.9375 15.8906 14.2812 15.5625 14.9688 15.5625C15.5104 15.5625 15.8438 15.8229 15.9688 16.3438L18.25 25.4844L20.1719 20.3594C20.3385 19.9115 20.6667 19.6875 21.1562 19.6875C21.6354 19.6875 21.9583 19.9115 22.125 20.3594L24.0469 25.5L26.3438 16.3438C26.4792 15.8229 26.8125 15.5625 27.3438 15.5625C27.6146 15.5625 27.8542 15.6615 28.0625 15.8594C28.2708 16.0469 28.375 16.276 28.375 16.5469C28.375 16.6615 28.3646 16.7604 28.3438 16.8438L25.2812 29.0938C25.1354 29.6979 24.7917 30 24.25 30ZM37.6562 17.625C36.8021 17.625 36.0729 17.9271 35.4688 18.5312C34.8646 19.1354 34.5625 19.8646 34.5625 20.7188V21.75H40.75V20.7188C40.75 19.8646 40.4479 19.1354 39.8438 18.5312C39.2396 17.9271 38.5104 17.625 37.6562 17.625ZM34.5625 23.8125V25.875C34.5625 26.4375 34.7656 26.9219 35.1719 27.3281C35.5781 27.7344 36.0625 27.9375 36.625 27.9375H41.7812C42.4688 27.9375 42.8125 28.2812 42.8125 28.9688C42.8125 29.6562 42.4688 30 41.7812 30H36.625C35.4688 30 34.4896 29.6042 33.6875 28.8125C32.8958 28.0104 32.5 27.0312 32.5 25.875V20.7188C32.5 19.2917 33 18.0781 34 17.0781C35.0104 16.0677 36.2292 15.5625 37.6562 15.5625C39.1042 15.5625 40.3229 16.0625 41.3125 17.0625C42.3125 18.0521 42.8125 19.2708 42.8125 20.7188V23.8125H34.5625ZM46.9375 10.4062C46.9375 9.71875 47.2812 9.375 47.9688 9.375C48.6562 9.375 49 9.71875 49 10.4062V26.9062C49 27.4375 49.3438 27.7812 50.0312 27.9375C50.7188 28.0938 51.0625 28.4375 51.0625 28.9688C51.0625 29.6562 50.7188 30 50.0312 30C49.1042 30 48.3542 29.7292 47.7812 29.1875C47.2188 28.6354 46.9375 27.875 46.9375 26.9062V10.4062ZM57.25 19.6875V25.875C57.25 26.4375 57.4531 26.9219 57.8594 27.3281C58.2656 27.7344 58.75 27.9375 59.3125 27.9375H62.4062C63.0938 27.9375 63.4375 28.2812 63.4375 28.9688C63.4375 29.6562 63.0938 30 62.4062 30H59.3125C58.1562 30 57.1771 29.6042 56.375 28.8125C55.5833 28.0104 55.1875 27.0312 55.1875 25.875V19.6875C55.1875 18.5312 55.5833 17.5573 56.375 16.7656C57.1771 15.9635 58.1562 15.5625 59.3125 15.5625H62.4062C63.0938 15.5625 63.4375 15.9062 63.4375 16.5938C63.4375 17.2812 63.0938 17.625 62.4062 17.625H59.3125C58.7396 17.625 58.25 17.8281 57.8438 18.2344C57.4479 18.6302 57.25 19.1146 57.25 19.6875ZM67.5625 24.8438V20.7188C67.5625 19.2917 68.0625 18.0781 69.0625 17.0781C70.0729 16.0677 71.2917 15.5625 72.7188 15.5625C74.1667 15.5625 75.3854 16.0625 76.375 17.0625C77.375 18.0521 77.875 19.2708 77.875 20.7188V24.8438C77.875 26.2708 77.3698 27.4896 76.3594 28.5C75.3594 29.5 74.1458 30 72.7188 30C71.2917 30 70.0729 29.5 69.0625 28.5C68.0625 27.4896 67.5625 26.2708 67.5625 24.8438ZM75.8125 24.8438V20.7188C75.8125 19.8646 75.5104 19.1354 74.9062 18.5312C74.3021 17.9271 73.5729 17.625 72.7188 17.625C71.8646 17.625 71.1354 17.9271 70.5312 18.5312C69.9271 19.1354 69.625 19.8646 69.625 20.7188V24.8438C69.625 25.7083 69.9219 26.4427 70.5156 27.0469C71.1198 27.6406 71.8542 27.9375 72.7188 27.9375C73.5729 27.9375 74.3021 27.6354 74.9062 27.0312C75.5104 26.4271 75.8125 25.6979 75.8125 24.8438ZM83.0312 15.5625H92.3125C93.4688 15.5625 94.4427 15.9635 95.2344 16.7656C96.0365 17.5573 96.4375 18.5312 96.4375 19.6875V28.9688C96.4375 29.6562 96.0938 30 95.4062 30C94.7188 30 94.375 29.6562 94.375 28.9688V19.6875C94.375 19.1042 94.1771 18.6146 93.7812 18.2188C93.3854 17.8229 92.8958 17.625 92.3125 17.625H90.25V28.9688C90.25 29.6562 89.9062 30 89.2188 30C88.5312 30 88.1875 29.6562 88.1875 28.9688V17.625H84.0625V28.9688C84.0625 29.6562 83.7188 30 83.0312 30C82.3438 30 82 29.6562 82 28.9688V16.5938C82 15.9062 82.3438 15.5625 83.0312 15.5625ZM105.719 17.625C104.865 17.625 104.135 17.9271 103.531 18.5312C102.927 19.1354 102.625 19.8646 102.625 20.7188V21.75H108.812V20.7188C108.812 19.8646 108.51 19.1354 107.906 18.5312C107.302 17.9271 106.573 17.625 105.719 17.625ZM102.625 23.8125V25.875C102.625 26.4375 102.828 26.9219 103.234 27.3281C103.641 27.7344 104.125 27.9375 104.688 27.9375H109.844C110.531 27.9375 110.875 28.2812 110.875 28.9688C110.875 29.6562 110.531 30 109.844 30H104.688C103.531 30 102.552 29.6042 101.75 28.8125C100.958 28.0104 100.562 27.0312 100.562 25.875V20.7188C100.562 19.2917 101.062 18.0781 102.062 17.0781C103.073 16.0677 104.292 15.5625 105.719 15.5625C107.167 15.5625 108.385 16.0625 109.375 17.0625C110.375 18.0521 110.875 19.2708 110.875 20.7188V23.8125H102.625ZM129.438 17.625H128.406C127.719 17.625 127.375 17.2812 127.375 16.5938C127.375 15.9062 127.719 15.5625 128.406 15.5625H129.438V10.4062C129.438 9.71875 129.781 9.375 130.469 9.375C131.156 9.375 131.5 9.71875 131.5 10.4062V15.5625H134.594C135.281 15.5625 135.625 15.9062 135.625 16.5938C135.625 17.2812 135.281 17.625 134.594 17.625H131.5V28.9688C131.5 29.6562 131.156 30 130.469 30C129.781 30 129.438 29.6562 129.438 28.9688V17.625ZM139.75 24.8438V20.7188C139.75 19.2917 140.25 18.0781 141.25 17.0781C142.26 16.0677 143.479 15.5625 144.906 15.5625C146.354 15.5625 147.573 16.0625 148.562 17.0625C149.562 18.0521 150.062 19.2708 150.062 20.7188V24.8438C150.062 26.2708 149.557 27.4896 148.547 28.5C147.547 29.5 146.333 30 144.906 30C143.479 30 142.26 29.5 141.25 28.5C140.25 27.4896 139.75 26.2708 139.75 24.8438ZM148 24.8438V20.7188C148 19.8646 147.698 19.1354 147.094 18.5312C146.49 17.9271 145.76 17.625 144.906 17.625C144.052 17.625 143.323 17.9271 142.719 18.5312C142.115 19.1354 141.812 19.8646 141.812 20.7188V24.8438C141.812 25.7083 142.109 26.4427 142.703 27.0469C143.307 27.6406 144.042 27.9375 144.906 27.9375C145.76 27.9375 146.49 27.6354 147.094 27.0312C147.698 26.4271 148 25.6979 148 24.8438ZM168.625 19.6875V25.875C168.625 26.4375 168.828 26.9219 169.234 27.3281C169.641 27.7344 170.125 27.9375 170.688 27.9375H173.781C174.469 27.9375 174.812 28.2812 174.812 28.9688C174.812 29.6562 174.469 30 173.781 30H170.688C169.531 30 168.552 29.6042 167.75 28.8125C166.958 28.0104 166.562 27.0312 166.562 25.875V19.6875C166.562 18.5312 166.958 17.5573 167.75 16.7656C168.552 15.9635 169.531 15.5625 170.688 15.5625H173.781C174.469 15.5625 174.812 15.9062 174.812 16.5938C174.812 17.2812 174.469 17.625 173.781 17.625H170.688C170.115 17.625 169.625 17.8281 169.219 18.2344C168.823 18.6302 168.625 19.1146 168.625 19.6875ZM178.938 24.8438V20.7188C178.938 19.2917 179.438 18.0781 180.438 17.0781C181.448 16.0677 182.667 15.5625 184.094 15.5625C185.542 15.5625 186.76 16.0625 187.75 17.0625C188.75 18.0521 189.25 19.2708 189.25 20.7188V24.8438C189.25 26.2708 188.745 27.4896 187.734 28.5C186.734 29.5 185.521 30 184.094 30C182.667 30 181.448 29.5 180.438 28.5C179.438 27.4896 178.938 26.2708 178.938 24.8438ZM187.188 24.8438V20.7188C187.188 19.8646 186.885 19.1354 186.281 18.5312C185.677 17.9271 184.948 17.625 184.094 17.625C183.24 17.625 182.51 17.9271 181.906 18.5312C181.302 19.1354 181 19.8646 181 20.7188V24.8438C181 25.7083 181.297 26.4427 181.891 27.0469C182.495 27.6406 183.229 27.9375 184.094 27.9375C184.948 27.9375 185.677 27.6354 186.281 27.0312C186.885 26.4271 187.188 25.6979 187.188 24.8438ZM193.375 28.9688V16.5938C193.375 15.9062 193.719 15.5625 194.406 15.5625H199.562C200.719 15.5625 201.693 15.9635 202.484 16.7656C203.286 17.5573 203.688 18.5312 203.688 19.6875V28.9688C203.688 29.6562 203.344 30 202.656 30C201.969 30 201.625 29.6562 201.625 28.9688V19.6875C201.625 19.1042 201.427 18.6146 201.031 18.2188C200.635 17.8229 200.146 17.625 199.562 17.625H195.438V28.9688C195.438 29.6562 195.094 30 194.406 30C193.719 30 193.375 29.6562 193.375 28.9688ZM216.062 26.3906C216.062 25.7344 215.771 25.2656 215.188 24.9844L209.891 22.4375C208.505 21.7708 207.812 20.6823 207.812 19.1719C207.812 17.9844 208.302 17.0677 209.281 16.4219C210.125 15.8594 211.177 15.5781 212.438 15.5781C213.969 15.5781 215.339 15.9583 216.547 16.7188C216.911 16.9479 217.094 17.25 217.094 17.625C217.094 17.9062 216.99 18.151 216.781 18.3594C216.583 18.5573 216.344 18.6562 216.062 18.6562C215.875 18.6562 215.714 18.6146 215.578 18.5312C214.589 17.9375 213.542 17.6406 212.438 17.6406C210.729 17.6406 209.875 18.151 209.875 19.1719C209.875 19.8177 210.156 20.276 210.719 20.5469L216.062 23.125C217.438 23.7917 218.125 24.8802 218.125 26.3906C218.125 27.6406 217.63 28.5781 216.641 29.2031C215.797 29.7344 214.708 30 213.375 30C211.396 30 209.734 29.6198 208.391 28.8594C208.005 28.6406 207.812 28.3333 207.812 27.9375C207.812 27.6562 207.911 27.4167 208.109 27.2188C208.318 27.0104 208.562 26.9062 208.844 26.9062C208.979 26.9062 209.109 26.9323 209.234 26.9844C209.568 27.1302 210.057 27.3229 210.703 27.5625C211.641 27.8125 212.552 27.9375 213.438 27.9375C215.188 27.9375 216.062 27.4219 216.062 26.3906ZM232.562 16.5938V28.9688C232.562 29.6562 232.219 30 231.531 30H226.375C225.219 30 224.24 29.6042 223.438 28.8125C222.646 28.0104 222.25 27.0312 222.25 25.875V16.5938C222.25 15.9062 222.594 15.5625 223.281 15.5625C223.969 15.5625 224.312 15.9062 224.312 16.5938V25.875C224.312 26.4375 224.516 26.9219 224.922 27.3281C225.328 27.7344 225.812 27.9375 226.375 27.9375H230.5V16.5938C230.5 15.9062 230.844 15.5625 231.531 15.5625C232.219 15.5625 232.562 15.9062 232.562 16.5938ZM236.688 10.4062C236.688 9.71875 237.031 9.375 237.719 9.375C238.406 9.375 238.75 9.71875 238.75 10.4062V26.9062C238.75 27.4375 239.094 27.7812 239.781 27.9375C240.469 28.0938 240.812 28.4375 240.812 28.9688C240.812 29.6562 240.469 30 239.781 30C238.854 30 238.104 29.7292 237.531 29.1875C236.969 28.6354 236.688 27.875 236.688 26.9062V10.4062ZM247 17.625H245.969C245.281 17.625 244.938 17.2812 244.938 16.5938C244.938 15.9062 245.281 15.5625 245.969 15.5625H247V10.4062C247 9.71875 247.344 9.375 248.031 9.375C248.719 9.375 249.062 9.71875 249.062 10.4062V15.5625H252.156C252.844 15.5625 253.188 15.9062 253.188 16.5938C253.188 17.2812 252.844 17.625 252.156 17.625H249.062V28.9688C249.062 29.6562 248.719 30 248.031 30C247.344 30 247 29.6562 247 28.9688V17.625ZM261.438 30C260.281 30 259.302 29.6042 258.5 28.8125C257.708 28.0104 257.312 27.0312 257.312 25.875C257.312 25.125 257.495 24.4323 257.859 23.7969C258.641 22.4323 259.833 21.75 261.438 21.75H265.562V19.6875C265.562 19.1042 265.365 18.6146 264.969 18.2188C264.573 17.8229 264.083 17.625 263.5 17.625H259.375C258.688 17.625 258.344 17.2812 258.344 16.5938C258.344 15.9062 258.688 15.5625 259.375 15.5625H263.5C264.656 15.5625 265.63 15.9635 266.422 16.7656C267.224 17.5573 267.625 18.5312 267.625 19.6875V28.9688C267.625 29.6562 267.281 30 266.594 30H261.438ZM265.562 23.8125H261.438C260.865 23.8125 260.375 24.0156 259.969 24.4219C259.573 24.8177 259.375 25.3021 259.375 25.875C259.375 26.4375 259.578 26.9219 259.984 27.3281C260.391 27.7344 260.875 27.9375 261.438 27.9375H265.562V23.8125ZM273.812 17.625H272.781C272.094 17.625 271.75 17.2812 271.75 16.5938C271.75 15.9062 272.094 15.5625 272.781 15.5625H273.812V10.4062C273.812 9.71875 274.156 9.375 274.844 9.375C275.531 9.375 275.875 9.71875 275.875 10.4062V15.5625H278.969C279.656 15.5625 280 15.9062 280 16.5938C280 17.2812 279.656 17.625 278.969 17.625H275.875V28.9688C275.875 29.6562 275.531 30 274.844 30C274.156 30 273.812 29.6562 273.812 28.9688V17.625ZM284.125 16.5938C284.125 15.9062 284.469 15.5625 285.156 15.5625C285.844 15.5625 286.188 15.9062 286.188 16.5938V28.9688C286.188 29.6562 285.844 30 285.156 30C284.469 30 284.125 29.6562 284.125 28.9688V16.5938ZM284.125 11.4375V10.4062C284.125 9.71875 284.469 9.375 285.156 9.375C285.844 9.375 286.188 9.71875 286.188 10.4062V11.4375C286.188 12.125 285.844 12.4688 285.156 12.4688C284.469 12.4688 284.125 12.125 284.125 11.4375ZM290.312 24.8438V20.7188C290.312 19.2917 290.812 18.0781 291.812 17.0781C292.823 16.0677 294.042 15.5625 295.469 15.5625C296.917 15.5625 298.135 16.0625 299.125 17.0625C300.125 18.0521 300.625 19.2708 300.625 20.7188V24.8438C300.625 26.2708 300.12 27.4896 299.109 28.5C298.109 29.5 296.896 30 295.469 30C294.042 30 292.823 29.5 291.812 28.5C290.812 27.4896 290.312 26.2708 290.312 24.8438ZM298.562 24.8438V20.7188C298.562 19.8646 298.26 19.1354 297.656 18.5312C297.052 17.9271 296.323 17.625 295.469 17.625C294.615 17.625 293.885 17.9271 293.281 18.5312C292.677 19.1354 292.375 19.8646 292.375 20.7188V24.8438C292.375 25.7083 292.672 26.4427 293.266 27.0469C293.87 27.6406 294.604 27.9375 295.469 27.9375C296.323 27.9375 297.052 27.6354 297.656 27.0312C298.26 26.4271 298.562 25.6979 298.562 24.8438ZM304.75 28.9688V16.5938C304.75 15.9062 305.094 15.5625 305.781 15.5625H310.938C312.094 15.5625 313.068 15.9635 313.859 16.7656C314.661 17.5573 315.062 18.5312 315.062 19.6875V28.9688C315.062 29.6562 314.719 30 314.031 30C313.344 30 313 29.6562 313 28.9688V19.6875C313 19.1042 312.802 18.6146 312.406 18.2188C312.01 17.8229 311.521 17.625 310.938 17.625H306.812V28.9688C306.812 29.6562 306.469 30 305.781 30C305.094 30 304.75 29.6562 304.75 28.9688ZM119.125 42.5625H120.156V40.5C120.156 39.3438 120.557 38.3698 121.359 37.5781C122.161 36.776 123.135 36.375 124.281 36.375H125.312C126 36.375 126.344 36.7188 126.344 37.4062C126.344 38.0938 126 38.4375 125.312 38.4375H124.281C123.708 38.4375 123.219 38.6406 122.812 39.0469C122.417 39.4427 122.219 39.9271 122.219 40.5V42.5625H125.312C126 42.5625 126.344 42.9062 126.344 43.5938C126.344 44.2812 126 44.625 125.312 44.625H122.219V55.9688C122.219 56.6562 121.875 57 121.188 57C120.5 57 120.156 56.6562 120.156 55.9688V44.625H119.125C118.438 44.625 118.094 44.2812 118.094 43.5938C118.094 42.9062 118.438 42.5625 119.125 42.5625ZM130.469 51.8438V47.7188C130.469 46.2917 130.969 45.0781 131.969 44.0781C132.979 43.0677 134.198 42.5625 135.625 42.5625C137.073 42.5625 138.292 43.0625 139.281 44.0625C140.281 45.0521 140.781 46.2708 140.781 47.7188V51.8438C140.781 53.2708 140.276 54.4896 139.266 55.5C138.266 56.5 137.052 57 135.625 57C134.198 57 132.979 56.5 131.969 55.5C130.969 54.4896 130.469 53.2708 130.469 51.8438ZM138.719 51.8438V47.7188C138.719 46.8646 138.417 46.1354 137.812 45.5312C137.208 44.9271 136.479 44.625 135.625 44.625C134.771 44.625 134.042 44.9271 133.438 45.5312C132.833 46.1354 132.531 46.8646 132.531 47.7188V51.8438C132.531 52.7083 132.828 53.4427 133.422 54.0469C134.026 54.6406 134.76 54.9375 135.625 54.9375C136.479 54.9375 137.208 54.6354 137.812 54.0312C138.417 53.4271 138.719 52.6979 138.719 51.8438ZM144.906 43.5938C144.906 42.9062 145.25 42.5625 145.938 42.5625H152.125C152.812 42.5625 153.156 42.9062 153.156 43.5938V45.6562C153.156 46.3438 152.812 46.6875 152.125 46.6875C151.438 46.6875 151.094 46.3438 151.094 45.6562V44.625H146.969V55.9688C146.969 56.6562 146.625 57 145.938 57C145.25 57 144.906 56.6562 144.906 55.9688V43.5938ZM179.969 57C179.49 57 179.156 56.75 178.969 56.25L176.875 50.6406L174.781 56.2188C174.583 56.7396 174.25 57 173.781 57C173.24 57 172.891 56.6771 172.734 56.0312L169.688 43.8438C169.667 43.7604 169.656 43.6615 169.656 43.5469C169.656 42.8906 170 42.5625 170.688 42.5625C171.229 42.5625 171.562 42.8229 171.688 43.3438L173.969 52.4844L175.891 47.3594C176.057 46.9115 176.385 46.6875 176.875 46.6875C177.354 46.6875 177.677 46.9115 177.844 47.3594L179.766 52.5L182.062 43.3438C182.198 42.8229 182.531 42.5625 183.062 42.5625C183.333 42.5625 183.573 42.6615 183.781 42.8594C183.99 43.0469 184.094 43.276 184.094 43.5469C184.094 43.6615 184.083 43.7604 184.062 43.8438L181 56.0938C180.854 56.6979 180.51 57 179.969 57ZM192.344 57C191.188 57 190.208 56.6042 189.406 55.8125C188.615 55.0104 188.219 54.0312 188.219 52.875C188.219 52.125 188.401 51.4323 188.766 50.7969C189.547 49.4323 190.74 48.75 192.344 48.75H196.469V46.6875C196.469 46.1042 196.271 45.6146 195.875 45.2188C195.479 44.8229 194.99 44.625 194.406 44.625H190.281C189.594 44.625 189.25 44.2812 189.25 43.5938C189.25 42.9062 189.594 42.5625 190.281 42.5625H194.406C195.562 42.5625 196.536 42.9635 197.328 43.7656C198.13 44.5573 198.531 45.5312 198.531 46.6875V55.9688C198.531 56.6562 198.188 57 197.5 57H192.344ZM196.469 50.8125H192.344C191.771 50.8125 191.281 51.0156 190.875 51.4219C190.479 51.8177 190.281 52.3021 190.281 52.875C190.281 53.4375 190.484 53.9219 190.891 54.3281C191.297 54.7344 191.781 54.9375 192.344 54.9375H196.469V50.8125ZM202.656 43.5938C202.656 42.9062 203 42.5625 203.688 42.5625H209.875C210.562 42.5625 210.906 42.9062 210.906 43.5938V45.6562C210.906 46.3438 210.562 46.6875 209.875 46.6875C209.188 46.6875 208.844 46.3438 208.844 45.6562V44.625H204.719V55.9688C204.719 56.6562 204.375 57 203.688 57C203 57 202.656 56.6562 202.656 55.9688V43.5938Z" fill="black"/>
</svg>
