<svg width="221" height="208" viewBox="0 0 221 208" fill="none" xmlns="http://www.w3.org/2000/svg">
<path d="M69.8913 66.1353V54.6996L45.6319 35.0393L47.9846 52.6673M124.372 188.5C124.372 188.5 167.269 172.9 181.326 151.532C195.382 130.165 194.549 88.3956 194.549 88.3956C194.006 85.8916 192.694 83.5928 190.774 81.7854C188.854 79.9779 186.413 78.7414 183.752 78.2296C175.244 76.843 162.412 75.0056 162.412 75.0056C161.904 72.9071 160.669 71.0273 158.901 69.6622C157.133 68.2971 154.932 67.5244 152.647 67.4656C137.193 65.2466 121.518 64.7274 105.937 65.9186C104.092 66.2593 102.375 67.0516 100.959 68.2155C99.5432 69.3794 98.4779 70.874 97.8708 72.5486L88.9663 73.242C82.2145 73.2391 75.4963 74.1364 69.0119 75.907C67.6027 76.8039 66.4437 78.0069 65.6327 79.4143C64.8218 80.8217 64.3826 82.3922 64.3524 83.993C63.5789 92.8503 62.764 118.088 62.764 118.088C62.8065 128.359 66.1904 138.372 72.4604 146.779C83.073 161.469 93.2114 173.472 124.372 188.5V188.5ZM124.372 188.5L130.109 65.689L124.372 188.5ZM119.432 99.7576L47.9938 52.663L119.432 99.7576Z" stroke="#2C619F" stroke-linecap="round" stroke-linejoin="round"/>
<path d="M115.44 57.7807L121.361 47.7923L110.366 19.5L103.294 35.971M69.8912 66.1353L54.5133 70.0137L26.4417 55.6443L47.9892 52.6673L69.8912 66.1353ZM142.375 111.965L103.294 35.971L142.375 111.965Z" stroke="#2C619F" stroke-linecap="round" stroke-linejoin="round"/>
<path d="M115.44 57.7806L100.007 54.1146L82.9349 28.691L103.294 35.971" stroke="#2C619F" stroke-linecap="round" stroke-linejoin="round"/>
</svg>
