<svg width="760" height="280" viewBox="0 0 760 280" fill="none" xmlns="http://www.w3.org/2000/svg">
<rect width="760" height="280" fill="url(#paint0_linear_39_2)"/>
<circle cx="51" cy="48" r="15" fill="white"/>
<circle cx="51" cy="48" r="15" fill="white"/>
<circle cx="93" cy="63" r="15" fill="white"/>
<circle cx="81" cy="48" r="15" fill="white"/>
<circle cx="66" cy="44" r="15" fill="white"/>
<circle cx="73" cy="67" r="15" fill="white"/>
<circle cx="56" cy="71" r="15" fill="white"/>
<circle cx="577" cy="37" r="15" fill="white"/>
<circle cx="619" cy="52" r="15" fill="white"/>
<circle cx="607" cy="37" r="15" fill="white"/>
<circle cx="592" cy="33" r="15" fill="white"/>
<circle cx="599" cy="56" r="15" fill="white"/>
<circle cx="582" cy="60" r="15" fill="white"/>
<circle cx="469" cy="37" r="15" fill="white"/>
<circle cx="511" cy="52" r="15" fill="white"/>
<circle cx="499" cy="37" r="15" fill="white"/>
<circle cx="484" cy="33" r="15" fill="white"/>
<circle cx="491" cy="56" r="15" fill="white"/>
<circle cx="474" cy="60" r="15" fill="white"/>
<circle cx="420" cy="41" r="15" fill="white"/>
<circle cx="462" cy="56" r="15" fill="white"/>
<circle cx="450" cy="41" r="15" fill="white"/>
<circle cx="435" cy="37" r="15" fill="white"/>
<circle cx="442" cy="60" r="15" fill="white"/>
<circle cx="425" cy="64" r="15" fill="white"/>
<circle cx="327" cy="41" r="15" fill="white"/>
<circle cx="369" cy="56" r="15" fill="white"/>
<circle cx="357" cy="41" r="15" fill="white"/>
<circle cx="342" cy="37" r="15" fill="white"/>
<circle cx="349" cy="60" r="15" fill="white"/>
<circle cx="332" cy="64" r="15" fill="white"/>
<circle cx="276" cy="42" r="15" fill="white"/>
<circle cx="318" cy="57" r="15" fill="white"/>
<circle cx="306" cy="42" r="15" fill="white"/>
<circle cx="291" cy="38" r="15" fill="white"/>
<circle cx="298" cy="61" r="15" fill="white"/>
<circle cx="281" cy="65" r="15" fill="white"/>
<circle cx="174" cy="43" r="15" fill="white"/>
<circle cx="216" cy="58" r="15" fill="white"/>
<circle cx="204" cy="43" r="15" fill="white"/>
<circle cx="189" cy="39" r="15" fill="white"/>
<circle cx="196" cy="62" r="15" fill="white"/>
<circle cx="179" cy="66" r="15" fill="white"/>
<circle cx="138" cy="44" r="15" fill="white"/>
<circle cx="180" cy="59" r="15" fill="white"/>
<circle cx="168" cy="44" r="15" fill="white"/>
<circle cx="153" cy="40" r="15" fill="white"/>
<circle cx="160" cy="63" r="15" fill="white"/>
<circle cx="143" cy="67" r="15" fill="white"/>
<path d="M14.9999 37C23.9034 33.401 28.5862 34.2189 36.2016 42.458C38.4443 34.0717 36 28 52 28" stroke="black"/>
<path d="M363.205 7.5625C372.679 9.13411 376.248 12.2737 378.45 23.275C384.737 17.2884 385.817 10.833 399.469 19.1759" stroke="black"/>
<path d="M363.205 7.5625C372.679 9.13411 376.248 12.2737 378.45 23.275C384.737 17.2884 385.817 10.833 399.469 19.1759" stroke="black"/>
<path d="M14.9999 37C23.9034 33.401 28.5862 34.2189 36.2016 42.458C38.4443 34.0717 36 28 52 28" stroke="black"/>
<path d="M14.9999 37C23.9034 33.401 28.5862 34.2189 36.2016 42.458C38.4443 34.0717 36 28 52 28" stroke="black"/>
<path d="M516 37.1304C524.904 33.5314 529.586 34.3492 537.202 42.5884C539.444 34.202 537 28.1304 553 28.1304" stroke="black"/>
<path d="M516 37.1304C524.904 33.5314 529.586 34.3492 537.202 42.5884C539.444 34.202 537 28.1304 553 28.1304" stroke="black"/>
<path d="M228.754 47.9539C238.085 48.1633 241.939 50.3944 245.525 59.4283C250.78 53.6289 250.96 48.0478 265.216 53.4845" stroke="black"/>
<path d="M148 93.1304C156.904 89.5314 161.586 90.3492 169.202 98.5884C171.444 90.202 169 84.1304 185 84.1304" stroke="black"/>
<path d="M375.792 72C385.123 74.2722 388.448 77.6687 389.826 88.8034C396.54 83.3012 398.098 76.9441 411.092 86.2798" stroke="black"/>
<defs>
<linearGradient id="paint0_linear_39_2" x1="380" y1="0" x2="380" y2="280" gradientUnits="userSpaceOnUse">
<stop stop-color="#01F0FF" stop-opacity="0"/>
<stop offset="0.0001" stop-color="white"/>
<stop offset="0.9999" stop-color="#01F0FF"/>
</linearGradient>
</defs>
</svg>
