<svg width="81" height="89" viewBox="0 0 81 89" fill="none" xmlns="http://www.w3.org/2000/svg">
<ellipse cx="40.5" cy="44.5" rx="40.5" ry="44.5" fill="#5786A9"/>
<path d="M39.7273 24.6136C41.1591 24.625 42.5909 24.8977 44.0227 25.4318C45.4545 25.9659 46.7614 26.8523 47.9432 28.0909C49.125 29.3182 50.0739 30.9943 50.7898 33.1193C51.5057 35.2443 51.8636 37.9091 51.8636 41.1136C51.8636 44.2159 51.5682 46.9716 50.9773 49.3807C50.3977 51.7784 49.5568 53.8011 48.4545 55.4489C47.3636 57.0966 46.0341 58.3466 44.4659 59.1989C42.9091 60.0511 41.1477 60.4773 39.1818 60.4773C37.2273 60.4773 35.483 60.0909 33.9489 59.3182C32.4261 58.5341 31.1761 57.4489 30.1989 56.0625C29.233 54.6648 28.6136 53.0455 28.3409 51.2045H32.5C32.875 52.8068 33.6193 54.1307 34.733 55.1761C35.858 56.2102 37.3409 56.7273 39.1818 56.7273C41.875 56.7273 44 55.5511 45.5568 53.1989C47.125 50.8466 47.9091 47.5227 47.9091 43.2273H47.6364C47 44.1818 46.2443 45.0057 45.3693 45.6989C44.4943 46.392 43.5227 46.9261 42.4545 47.3011C41.3864 47.6761 40.25 47.8636 39.0455 47.8636C37.0455 47.8636 35.2102 47.3693 33.5398 46.3807C31.8807 45.3807 30.5511 44.0114 29.5511 42.2727C28.5625 40.5227 28.0682 38.5227 28.0682 36.2727C28.0682 34.1364 28.5455 32.1818 29.5 30.4091C30.4659 28.625 31.8182 27.2045 33.5568 26.1477C35.3068 25.0909 37.3636 24.5795 39.7273 24.6136ZM39.7273 28.3636C38.2955 28.3636 37.0057 28.7216 35.858 29.4375C34.7216 30.142 33.8182 31.0966 33.1477 32.3011C32.4886 33.4943 32.1591 34.8182 32.1591 36.2727C32.1591 37.7273 32.4773 39.0511 33.1136 40.2443C33.7614 41.4261 34.642 42.3693 35.7557 43.0739C36.8807 43.767 38.1591 44.1136 39.5909 44.1136C40.6705 44.1136 41.6761 43.9034 42.608 43.483C43.5398 43.0511 44.3523 42.4659 45.0455 41.7273C45.75 40.9773 46.3011 40.1307 46.6989 39.1875C47.0966 38.233 47.2955 37.2386 47.2955 36.2045C47.2955 34.8409 46.9659 33.5625 46.3068 32.3693C45.6591 31.1761 44.7614 30.2102 43.6136 29.4716C42.4773 28.733 41.1818 28.3636 39.7273 28.3636Z" fill="black"/>
</svg>
