<svg width="81" height="87" viewBox="0 0 81 87" fill="none" xmlns="http://www.w3.org/2000/svg">
<ellipse cx="40.5" cy="43.5" rx="40.5" ry="43.5" fill="#5786A9"/>
<path d="M39 60.4773C36.4318 60.4773 34.2443 59.7784 32.4375 58.3807C30.6307 56.9716 29.25 54.9318 28.2955 52.2614C27.3409 49.5795 26.8636 46.3409 26.8636 42.5455C26.8636 38.7727 27.3409 35.5511 28.2955 32.8807C29.2614 30.1989 30.6477 28.1534 32.4545 26.7443C34.2727 25.3239 36.4545 24.6136 39 24.6136C41.5455 24.6136 43.7216 25.3239 45.5284 26.7443C47.3466 28.1534 48.733 30.1989 49.6875 32.8807C50.6534 35.5511 51.1364 38.7727 51.1364 42.5455C51.1364 46.3409 50.6591 49.5795 49.7045 52.2614C48.75 54.9318 47.3693 56.9716 45.5625 58.3807C43.7557 59.7784 41.5682 60.4773 39 60.4773ZM39 56.7273C41.5455 56.7273 43.5227 55.5 44.9318 53.0455C46.3409 50.5909 47.0455 47.0909 47.0455 42.5455C47.0455 39.5227 46.7216 36.9489 46.0739 34.8239C45.4375 32.6989 44.517 31.0795 43.3125 29.9659C42.1193 28.8523 40.6818 28.2955 39 28.2955C36.4773 28.2955 34.5057 29.5398 33.0852 32.0284C31.6648 34.5057 30.9545 38.0114 30.9545 42.5455C30.9545 45.5682 31.2727 48.1364 31.9091 50.25C32.5455 52.3636 33.4602 53.9716 34.6534 55.0739C35.858 56.1761 37.3068 56.7273 39 56.7273Z" fill="black"/>
</svg>
