<svg width="81" height="89" viewBox="0 0 81 89" fill="none" xmlns="http://www.w3.org/2000/svg">
<ellipse cx="40.5" cy="44.5" rx="40.5" ry="44.5" fill="#5786A9"/>
<path d="M40.2045 62.4773C38.7727 62.4545 37.3409 62.1818 35.9091 61.6591C34.4773 61.1364 33.1705 60.2557 31.9886 59.017C30.8068 57.767 29.858 56.0795 29.142 53.9545C28.4261 51.8182 28.0682 49.1364 28.0682 45.9091C28.0682 42.8182 28.358 40.0795 28.9375 37.6932C29.517 35.2955 30.358 33.2784 31.4602 31.642C32.5625 29.9943 33.892 28.7443 35.4489 27.892C37.017 27.0398 38.7841 26.6136 40.75 26.6136C42.7045 26.6136 44.4432 27.0057 45.9659 27.7898C47.5 28.5625 48.75 29.642 49.7159 31.0284C50.6818 32.4148 51.3068 34.0114 51.5909 35.8182H47.4318C47.0455 34.25 46.2955 32.9489 45.1818 31.9148C44.0682 30.8807 42.5909 30.3636 40.75 30.3636C38.0455 30.3636 35.9148 31.5398 34.358 33.892C32.8125 36.2443 32.0341 39.5455 32.0227 43.7955H32.2955C32.9318 42.8295 33.6875 42.0057 34.5625 41.3239C35.4489 40.6307 36.4261 40.0966 37.4943 39.7216C38.5625 39.3466 39.6932 39.1591 40.8864 39.1591C42.8864 39.1591 44.7159 39.6591 46.375 40.6591C48.0341 41.6477 49.3636 43.017 50.3636 44.767C51.3636 46.5057 51.8636 48.5 51.8636 50.75C51.8636 52.9091 51.3807 54.8864 50.4148 56.6818C49.4489 58.4659 48.0909 59.8864 46.3409 60.9432C44.6023 61.9886 42.5568 62.5 40.2045 62.4773ZM40.2045 58.7273C41.6364 58.7273 42.9205 58.3693 44.0568 57.6534C45.2045 56.9375 46.108 55.9773 46.767 54.7727C47.4375 53.5682 47.7727 52.2273 47.7727 50.75C47.7727 49.3068 47.4489 47.9943 46.8011 46.8125C46.1648 45.6193 45.2841 44.6705 44.1591 43.9659C43.0455 43.2614 41.7727 42.9091 40.3409 42.9091C39.2614 42.9091 38.2557 43.125 37.3239 43.5568C36.392 43.9773 35.5739 44.5568 34.8693 45.2955C34.1761 46.0341 33.6307 46.8807 33.233 47.8352C32.8352 48.7784 32.6364 49.7727 32.6364 50.8182C32.6364 52.2045 32.9602 53.5 33.608 54.7045C34.267 55.9091 35.1648 56.8807 36.3011 57.6193C37.4489 58.358 38.75 58.7273 40.2045 58.7273Z" fill="black"/>
</svg>
