<svg width="81" height="87" viewBox="0 0 81 87" fill="none" xmlns="http://www.w3.org/2000/svg">
<ellipse cx="40.5" cy="43.5" rx="40.5" ry="43.5" fill="#C4C4C4"/>
<path d="M39.6136 49.2727C38.7727 49.2727 38.0511 48.9716 37.4489 48.3693C36.8466 47.767 36.5455 47.0455 36.5455 46.2045C36.5455 45.3636 36.8466 44.642 37.4489 44.0398C38.0511 43.4375 38.7727 43.1364 39.6136 43.1364C40.4545 43.1364 41.1761 43.4375 41.7784 44.0398C42.3807 44.642 42.6818 45.3636 42.6818 46.2045C42.6818 46.7614 42.5398 47.2727 42.2557 47.7386C41.983 48.2045 41.6136 48.5795 41.1477 48.8636C40.6932 49.1364 40.1818 49.2727 39.6136 49.2727Z" fill="black"/>
</svg>
