<svg width="81" height="87" viewBox="0 0 81 87" fill="none" xmlns="http://www.w3.org/2000/svg">
<ellipse cx="40.5" cy="43.5" rx="40.5" ry="43.5" fill="#C4C4C4"/>
<path d="M44.4091 53.4545V51.6136C44.4091 50.3409 44.6705 49.1761 45.1932 48.1193C45.7273 47.0511 46.5 46.1989 47.5114 45.5625C48.5341 44.9148 49.7727 44.5909 51.2273 44.5909C52.7045 44.5909 53.9432 44.9148 54.9432 45.5625C55.9432 46.1989 56.6989 47.0511 57.2102 48.1193C57.7216 49.1761 57.9773 50.3409 57.9773 51.6136V53.4545C57.9773 54.7273 57.7159 55.8977 57.1932 56.9659C56.6818 58.0227 55.9205 58.875 54.9091 59.5227C53.9091 60.1591 52.6818 60.4773 51.2273 60.4773C49.75 60.4773 48.5057 60.1591 47.4943 59.5227C46.483 58.875 45.7159 58.0227 45.1932 56.9659C44.6705 55.8977 44.4091 54.7273 44.4091 53.4545ZM47.8864 51.6136V53.4545C47.8864 54.5114 48.1364 55.4602 48.6364 56.3011C49.1364 57.1307 50 57.5455 51.2273 57.5455C52.4205 57.5455 53.2614 57.1307 53.75 56.3011C54.25 55.4602 54.5 54.5114 54.5 53.4545V51.6136C54.5 50.5568 54.2614 49.6136 53.7841 48.7841C53.3068 47.9432 52.4545 47.5227 51.2273 47.5227C50.0341 47.5227 49.1761 47.9432 48.6534 48.7841C48.142 49.6136 47.8864 50.5568 47.8864 51.6136ZM27.0227 33.4773V31.6364C27.0227 30.3636 27.2841 29.1989 27.8068 28.142C28.3409 27.0739 29.1136 26.2216 30.125 25.5852C31.1477 24.9375 32.3864 24.6136 33.8409 24.6136C35.3182 24.6136 36.5568 24.9375 37.5568 25.5852C38.5568 26.2216 39.3125 27.0739 39.8239 28.142C40.3352 29.1989 40.5909 30.3636 40.5909 31.6364V33.4773C40.5909 34.75 40.3295 35.9205 39.8068 36.9886C39.2955 38.0455 38.5341 38.8977 37.5227 39.5455C36.5227 40.1818 35.2955 40.5 33.8409 40.5C32.3636 40.5 31.1193 40.1818 30.108 39.5455C29.0966 38.8977 28.3295 38.0455 27.8068 36.9886C27.2841 35.9205 27.0227 34.75 27.0227 33.4773ZM30.5 31.6364V33.4773C30.5 34.5341 30.75 35.483 31.25 36.3239C31.75 37.1534 32.6136 37.5682 33.8409 37.5682C35.0341 37.5682 35.875 37.1534 36.3636 36.3239C36.8636 35.483 37.1136 34.5341 37.1136 33.4773V31.6364C37.1136 30.5795 36.875 29.6364 36.3977 28.8068C35.9205 27.9659 35.0682 27.5455 33.8409 27.5455C32.6477 27.5455 31.7898 27.9659 31.267 28.8068C30.7557 29.6364 30.5 30.5795 30.5 31.6364ZM28.3182 60L52.3182 25.0909H56.2045L32.2045 60H28.3182Z" fill="black"/>
</svg>
