<svg width="81" height="89" viewBox="0 0 81 89" fill="none" xmlns="http://www.w3.org/2000/svg">
<ellipse cx="40.5" cy="44.5" rx="40.5" ry="44.5" fill="#5786A9"/>
<path d="M39.5227 62.4773C37.5227 62.4773 35.7216 62.0795 34.1193 61.2841C32.517 60.4886 31.233 59.3977 30.267 58.0114C29.3011 56.625 28.7727 55.0455 28.6818 53.2727H32.7727C32.9318 54.8523 33.6477 56.1591 34.9205 57.1932C36.2045 58.2159 37.7386 58.7273 39.5227 58.7273C40.9545 58.7273 42.2273 58.392 43.3409 57.7216C44.4659 57.0511 45.3466 56.1307 45.983 54.9602C46.6307 53.7784 46.9545 52.4432 46.9545 50.9545C46.9545 49.4318 46.6193 48.0739 45.9489 46.8807C45.2898 45.6761 44.3807 44.7273 43.2216 44.0341C42.0625 43.3409 40.7386 42.9886 39.25 42.9773C38.1818 42.9659 37.0852 43.1307 35.9602 43.4716C34.8352 43.8011 33.9091 44.2273 33.1818 44.75L29.2273 44.2727L31.3409 27.0909H49.4773V30.8409H34.8864L33.6591 41.1364H33.8636C34.5795 40.5682 35.4773 40.0966 36.5568 39.7216C37.6364 39.3466 38.7614 39.1591 39.9318 39.1591C42.0682 39.1591 43.9716 39.6705 45.642 40.6932C47.3239 41.7045 48.642 43.0909 49.5966 44.8523C50.5625 46.6136 51.0455 48.625 51.0455 50.8864C51.0455 53.1136 50.5455 55.1023 49.5455 56.8523C48.5568 58.5909 47.1932 59.9659 45.4545 60.9773C43.7159 61.9773 41.7386 62.4773 39.5227 62.4773Z" fill="black"/>
</svg>
