<svg width="81" height="87" viewBox="0 0 81 87" fill="none" xmlns="http://www.w3.org/2000/svg">
<ellipse cx="40.5" cy="43.5" rx="40.5" ry="43.5" fill="#C4C4C4"/>
<path d="M54.3182 39H50.0909C49.8409 37.7841 49.4034 36.7159 48.7784 35.7955C48.1648 34.875 47.4148 34.1023 46.5284 33.4773C45.6534 32.8409 44.6818 32.3636 43.6136 32.0455C42.5455 31.7273 41.4318 31.5682 40.2727 31.5682C38.1591 31.5682 36.2443 32.1023 34.5284 33.1705C32.8239 34.2386 31.4659 35.8125 30.4545 37.892C29.4545 39.9716 28.9545 42.5227 28.9545 45.5455C28.9545 48.5682 29.4545 51.1193 30.4545 53.1989C31.4659 55.2784 32.8239 56.8523 34.5284 57.9205C36.2443 58.9886 38.1591 59.5227 40.2727 59.5227C41.4318 59.5227 42.5455 59.3636 43.6136 59.0455C44.6818 58.7273 45.6534 58.2557 46.5284 57.6307C47.4148 56.9943 48.1648 56.2159 48.7784 55.2955C49.4034 54.3636 49.8409 53.2955 50.0909 52.0909H54.3182C54 53.875 53.4205 55.4716 52.5795 56.8807C51.7386 58.2898 50.6932 59.4886 49.4432 60.4773C48.1932 61.4545 46.7898 62.1989 45.233 62.7102C43.6875 63.2216 42.0341 63.4773 40.2727 63.4773C37.2955 63.4773 34.6477 62.75 32.3295 61.2955C30.0114 59.8409 28.1875 57.7727 26.858 55.0909C25.5284 52.4091 24.8636 49.2273 24.8636 45.5455C24.8636 41.8636 25.5284 38.6818 26.858 36C28.1875 33.3182 30.0114 31.25 32.3295 29.7955C34.6477 28.3409 37.2955 27.6136 40.2727 27.6136C42.0341 27.6136 43.6875 27.8693 45.233 28.3807C46.7898 28.892 48.1932 29.642 49.4432 30.6307C50.6932 31.608 51.7386 32.8011 52.5795 34.2102C53.4205 35.608 54 37.2045 54.3182 39Z" fill="black"/>
</svg>
