<svg width="81" height="89" viewBox="0 0 81 89" fill="none" xmlns="http://www.w3.org/2000/svg">
<ellipse cx="40.5" cy="44.5" rx="40.5" ry="44.5" fill="#5786A9"/>
<path d="M39.7955 62.4773C37.4545 62.4773 35.3864 62.0625 33.5909 61.233C31.8068 60.392 30.4148 59.2386 29.4148 57.7727C28.4148 56.2955 27.9205 54.6136 27.9318 52.7273C27.9205 51.25 28.2102 49.8864 28.8011 48.6364C29.392 47.375 30.1989 46.3239 31.2216 45.483C32.2557 44.6307 33.4091 44.0909 34.6818 43.8636V43.6591C33.0114 43.2273 31.6818 42.2898 30.6932 40.8466C29.7045 39.392 29.2159 37.7386 29.2273 35.8864C29.2159 34.1136 29.6648 32.5284 30.5739 31.1307C31.483 29.733 32.733 28.6307 34.3239 27.8239C35.9261 27.017 37.75 26.6136 39.7955 26.6136C41.8182 26.6136 43.625 27.017 45.2159 27.8239C46.8068 28.6307 48.0568 29.733 48.9659 31.1307C49.8864 32.5284 50.3523 34.1136 50.3636 35.8864C50.3523 37.7386 49.8466 39.392 48.8466 40.8466C47.858 42.2898 46.5455 43.2273 44.9091 43.6591V43.8636C46.1705 44.0909 47.3068 44.6307 48.3182 45.483C49.3295 46.3239 50.1364 47.375 50.7386 48.6364C51.3409 49.8864 51.6477 51.25 51.6591 52.7273C51.6477 54.6136 51.1364 56.2955 50.125 57.7727C49.125 59.2386 47.733 60.392 45.9489 61.233C44.1761 62.0625 42.125 62.4773 39.7955 62.4773ZM39.7955 58.7273C41.375 58.7273 42.7386 58.4716 43.8864 57.9602C45.0341 57.4489 45.9205 56.7273 46.5455 55.7955C47.1705 54.8636 47.4886 53.7727 47.5 52.5227C47.4886 51.2045 47.1477 50.0398 46.4773 49.0284C45.8068 48.017 44.892 47.2216 43.733 46.642C42.5852 46.0625 41.2727 45.7727 39.7955 45.7727C38.3068 45.7727 36.9773 46.0625 35.8068 46.642C34.6477 47.2216 33.733 48.017 33.0625 49.0284C32.4034 50.0398 32.0795 51.2045 32.0909 52.5227C32.0795 53.7727 32.3807 54.8636 32.9943 55.7955C33.6193 56.7273 34.5114 57.4489 35.6705 57.9602C36.8295 58.4716 38.2045 58.7273 39.7955 58.7273ZM39.7955 42.1591C41.0455 42.1591 42.1534 41.9091 43.1193 41.4091C44.0966 40.9091 44.8636 40.2102 45.4205 39.3125C45.9773 38.4148 46.2614 37.3636 46.2727 36.1591C46.2614 34.9773 45.983 33.9489 45.4375 33.0739C44.892 32.1875 44.1364 31.5057 43.1705 31.0284C42.2045 30.5398 41.0795 30.2955 39.7955 30.2955C38.4886 30.2955 37.3466 30.5398 36.3693 31.0284C35.392 31.5057 34.6364 32.1875 34.1023 33.0739C33.5682 33.9489 33.3068 34.9773 33.3182 36.1591C33.3068 37.3636 33.5739 38.4148 34.1193 39.3125C34.6761 40.2102 35.4432 40.9091 36.4205 41.4091C37.3977 41.9091 38.5227 42.1591 39.7955 42.1591Z" fill="black"/>
</svg>
