<svg width="81" height="89" viewBox="0 0 81 89" fill="none" xmlns="http://www.w3.org/2000/svg">
<ellipse cx="40.5" cy="44.5" rx="40.5" ry="44.5" fill="#5786A9"/>
<path d="M40.4091 63.4773C38.1591 63.4773 36.1534 63.0909 34.392 62.3182C32.642 61.5455 31.25 60.4716 30.2159 59.0966C29.1932 57.7102 28.6364 56.1023 28.5455 54.2727H32.8409C32.9318 55.3977 33.3182 56.3693 34 57.1875C34.6818 57.9943 35.5739 58.6193 36.6761 59.0625C37.7784 59.5057 39 59.7273 40.3409 59.7273C41.8409 59.7273 43.1705 59.4659 44.3295 58.9432C45.4886 58.4205 46.3977 57.6932 47.0568 56.7614C47.7159 55.8295 48.0455 54.75 48.0455 53.5227C48.0455 52.2386 47.7273 51.108 47.0909 50.1307C46.4545 49.142 45.5227 48.3693 44.2955 47.8125C43.0682 47.2557 41.5682 46.9773 39.7955 46.9773H37V43.2273H39.7955C41.1818 43.2273 42.3977 42.9773 43.4432 42.4773C44.5 41.9773 45.3239 41.2727 45.9148 40.3636C46.517 39.4545 46.8182 38.3864 46.8182 37.1591C46.8182 35.9773 46.5568 34.9489 46.0341 34.0739C45.5114 33.1989 44.7727 32.517 43.8182 32.0284C42.875 31.5398 41.7614 31.2955 40.4773 31.2955C39.2727 31.2955 38.1364 31.517 37.0682 31.9602C36.0114 32.392 35.1477 33.0227 34.4773 33.8523C33.8068 34.6705 33.4432 35.6591 33.3864 36.8182H29.2955C29.3636 34.9886 29.9148 33.3864 30.9489 32.0114C31.983 30.625 33.3352 29.5455 35.0057 28.7727C36.6875 28 38.5341 27.6136 40.5455 27.6136C42.7045 27.6136 44.5568 28.0511 46.1023 28.9261C47.6477 29.7898 48.8352 30.9318 49.6648 32.3523C50.4943 33.7727 50.9091 35.3068 50.9091 36.9545C50.9091 38.9205 50.392 40.5966 49.358 41.983C48.3352 43.3693 46.9432 44.3295 45.1818 44.8636V45.1364C47.3864 45.5 49.108 46.4375 50.3466 47.9489C51.5852 49.4489 52.2045 51.3068 52.2045 53.5227C52.2045 55.4205 51.6875 57.125 50.6534 58.6364C49.6307 60.1364 48.233 61.3182 46.4602 62.1818C44.6875 63.0455 42.6705 63.4773 40.4091 63.4773Z" fill="black"/>
</svg>
