<svg width="81" height="87" viewBox="0 0 81 87" fill="none" xmlns="http://www.w3.org/2000/svg">
<ellipse cx="40.5" cy="43.5" rx="40.5" ry="43.5" fill="#C4C4C4"/>
<path d="M39 47.3333L43.3333 43L39 47.3333ZM43.3333 43L47.6667 38.6667L43.3333 43ZM43.3333 43L39 38.6667L43.3333 43ZM43.3333 43L47.6667 47.3333L43.3333 43ZM19.5 43L33.397 56.897C34.2095 57.7097 35.3115 58.1664 36.4607 58.1667H54.1667C55.3159 58.1667 56.4181 57.7101 57.2308 56.8975C58.0435 56.0848 58.5 54.9826 58.5 53.8333V32.1667C58.5 31.0174 58.0435 29.9152 57.2308 29.1025C56.4181 28.2899 55.3159 27.8333 54.1667 27.8333H36.4607C35.3115 27.8336 34.2095 28.2903 33.397 29.103L19.5 43Z" stroke="black" stroke-width="2" stroke-linecap="round" stroke-linejoin="round"/>
</svg>
