<svg width="81" height="89" viewBox="0 0 81 89" fill="none" xmlns="http://www.w3.org/2000/svg">
<ellipse cx="40.5" cy="44.5" rx="40.5" ry="44.5" fill="#5786A9"/>
<path d="M32.6136 61V57.9318L44.1364 45.3182C45.4886 43.8409 46.6023 42.5568 47.4773 41.4659C48.3523 40.3636 49 39.3295 49.4205 38.3636C49.8523 37.3864 50.0682 36.3636 50.0682 35.2955C50.0682 34.0682 49.7727 33.0057 49.1818 32.108C48.6023 31.2102 47.8068 30.517 46.7955 30.0284C45.7841 29.5398 44.6477 29.2955 43.3864 29.2955C42.0455 29.2955 40.875 29.5739 39.875 30.1307C38.8864 30.6761 38.1193 31.4432 37.5739 32.4318C37.0398 33.4205 36.7727 34.5795 36.7727 35.9091H32.75C32.75 33.8636 33.2216 32.0682 34.1648 30.5227C35.108 28.9773 36.392 27.7727 38.017 26.9091C39.6534 26.0455 41.4886 25.6136 43.5227 25.6136C45.5682 25.6136 47.3807 26.0455 48.9602 26.9091C50.5398 27.7727 51.7784 28.9375 52.6761 30.4034C53.5739 31.8693 54.0227 33.5 54.0227 35.2955C54.0227 36.5795 53.7898 37.8352 53.3239 39.0625C52.8693 40.2784 52.0739 41.6364 50.9375 43.1364C49.8125 44.625 48.25 46.4432 46.25 48.5909L38.4091 56.9773V57.25H54.6364V61H32.6136Z" fill="black"/>
</svg>
